<?xml version="1.0" encoding="UTF-8"?>
<svg width="75px" height="75px" viewBox="0 0 75 75" version="1.1" xmlns="http://www.w3.org/2000/svg" xmlns:xlink="http://www.w3.org/1999/xlink">
    <title>Icons/Programming/AI</title>
    <defs>
        <circle id="path-1" cx="27.9517705" cy="24.6743557" r="18.1189904"></circle>
        <mask id="mask-2" maskContentUnits="userSpaceOnUse" maskUnits="objectBoundingBox" x="0" y="0" width="36.2379808" height="36.2379808" fill="white">
            <use xlink:href="#path-1"></use>
        </mask>
    </defs>
    <g id="Icons/Programming/AI" stroke="none" stroke-width="1" fill="none" fill-rule="evenodd">
        <path d="M39.5,1.15470054 L67.9759526,17.5952995 C69.2135569,18.3098306 69.9759526,19.6303387 69.9759526,21.0594011 L69.9759526,53.9405989 C69.9759526,55.3696613 69.2135569,56.6901694 67.9759526,57.4047005 L39.5,73.8452995 C38.2623957,74.5598306 36.7376043,74.5598306 35.5,73.8452995 L7.02404736,57.4047005 C5.78644305,56.6901694 5.02404736,55.3696613 5.02404736,53.9405989 L5.02404736,21.0594011 C5.02404736,19.6303387 5.78644305,18.3098306 7.02404736,17.5952995 L35.5,1.15470054 C36.7376043,0.440169359 38.2623957,0.440169359 39.5,1.15470054 Z" id="Polygon-Copy-2" fill="#E0EAFB"></path>
        <g id="Group-6" transform="translate(14.000000, 10.000000)" stroke="#0064D2">
            <path d="M27.3137019,12.7630471 L27.3137019,4.82595411 C27.3137406,4.55004314 27.1060718,4.31835348 26.8318053,4.28827397 C20.0125244,3.54038578 14.2743075,5.01835969 9.61715474,8.72219569 C4.32692308,13.5829327 3.515625,18.4507212 2.97475962,20.8846154 C2.43389423,23.3185096 3.515625,22.986985 3.515625,24.6706731 C3.515625,25.740424 2.45122251,28.9019871 0.322417545,34.1553624 C0.141526549,34.601845 0.336421632,35.1122246 0.768881148,35.3244674 L0.768881148,35.3244674 L0.768881148,35.3244674 L5.53333616,35.3244674 L4.89508996,39.7451845 C4.86881978,39.9271574 4.93678967,40.1100143 5.07554304,40.230645 C6.44232955,41.4189144 7.27556369,42.3651769 7.57524545,43.0694326 C7.89088249,43.8111834 7.89088249,44.9336421 7.57524545,46.4368088 C7.43947338,47.6535932 7.7797916,48.776052 8.59620009,49.804185 C9.41260859,50.832318 10.660442,51.2813015 12.3397005,51.1511354 L22.578548,46.7187699 C22.9740098,46.5475757 23.2301409,46.157989 23.2305389,45.7270629 L23.2387729,36.812346 L23.2387729,36.812346" id="Path-5" stroke-width="1.62259615"></path>
            <circle id="Oval" stroke-width="1.62259615" cx="18.9302885" cy="13.5829327" r="1.08173077"></circle>
            <circle id="Oval-Copy" stroke-width="1.62259615" cx="15.6850962" cy="35.7584135" r="1.08173077"></circle>
            <circle id="Oval-Copy-2" stroke-width="1.62259615" cx="40.5649038" cy="28.7271635" r="1.08173077"></circle>
            <polyline id="Path-6" stroke-width="1.62259615" points="18.1189904 14.3942308 15.4146635 17.0985577 15.4146635 22.5072115 18.1189904 22.5072115"></polyline>
            <rect id="Rectangle" stroke-width="1.62259615" x="18.9302885" y="18.9915865" width="11.8990385" height="11.8990385"></rect>
            <path d="M26.9175551,22.2367788 L28.125,23.4442237 L28.125,28.1862981 L22.1754808,28.1862981 L22.1754808,22.2367788 L26.9175551,22.2367788 Z" id="Rectangle" stroke-width="1.62259615"></path>
            <polyline id="Path-7" stroke-width="1.62259615" points="28.9362981 18.4507212 28.9362981 14.3942308 31.640625 14.3942308"></polyline>
            <line x1="24.0685096" y1="18.1802885" x2="24.0685096" y2="15.4759615" id="Path-8" stroke-width="1.62259615"></line>
            <line x1="30.5588942" y1="21.4254808" x2="36.2379808" y2="21.4254808" id="Path-9" stroke-width="1.62259615"></line>
            <polyline id="Path-10" stroke-width="1.62259615" points="31.640625 24.1298077 36.6629464 24.1298077 36.6629464 28.9975962 40.2944712 28.9975962"></polyline>
            <line x1="31.640625" y1="27.375" x2="34.3449519" y2="27.375" id="Path-11" stroke-width="1.62259615"></line>
            <line x1="22.7163462" y1="31.1610577" x2="22.7163462" y2="32.7836538" id="Path-12" stroke-width="1.62259615"></line>
            <line x1="25.6911058" y1="31.4314904" x2="25.6911058" y2="34.40625" id="Path-13" stroke-width="1.62259615"></line>
            <line x1="18.1189904" y1="26.0228365" x2="15.4146635" y2="26.0228365" id="Path-14" stroke-width="1.62259615"></line>
            <polyline id="Path-15" stroke-width="1.62259615" points="18.1189904 29.2680288 15.4146635 29.2680288 15.4146635 35.4879808"></polyline>
            <line x1="22.7163462" y1="40.6262019" x2="25.1502404" y2="40.6262019" id="Path-16" stroke-width="1.62259615"></line>
            <use id="Oval" mask="url(#mask-2)" stroke-width="3.24519231" stroke-dasharray="37.86057758331299,64.90384483337402" transform="translate(27.951770, 24.674356) rotate(-62.000000) translate(-27.951770, -24.674356) " xlink:href="#path-1"></use>
            <path d="M33.2632212,49.2800481 L33.3087388,45.865212 C34.7207014,44.2330303 35.4266827,42.8472705 35.4266827,41.7079327 C35.4266827,38.8701715 33.1262227,36.5697115 30.2884615,36.5697115 C27.4507004,36.5697115 25.1502404,38.8701715 25.1502404,41.7079327 C25.1502404,42.8877799 25.9024221,44.3060142 27.4067854,45.9626355 L27.3137019,49.2800481" id="Oval" stroke-width="1.62259615"></path>
        </g>
    </g>
</svg>