<?xml version="1.0" encoding="UTF-8"?>
<svg width="75px" height="75px" viewBox="0 0 75 75" version="1.1" xmlns="http://www.w3.org/2000/svg" xmlns:xlink="http://www.w3.org/1999/xlink">
    <title>Icons/Programming/OJT</title>
    <defs>
        <linearGradient x1="60.3706155%" y1="32.9576277%" x2="-3.67493782%" y2="88.0715554%" id="linearGradient-1">
            <stop stop-color="#002C5C" offset="0%"></stop>
            <stop stop-color="#00336B" stop-opacity="0.27" offset="100%"></stop>
        </linearGradient>
    </defs>
    <g id="Icons/Programming/OJT" stroke="none" stroke-width="1" fill="none" fill-rule="evenodd">
        <rect id="Rectangle" fill="#FFFFFF" x="0" y="0" width="75" height="75"></rect>
        <rect id="Rectangle-Copy" fill="#FFFFFF" x="9" y="12" width="75" height="75"></rect>
        <path d="M37.5,2.11880215 C37.9316243,2.11880215 38.3632487,2.23044765 38.75,2.45373864 L38.75,2.45373864 L38.75,2.45373864 L67.2259526,18.8943376 C67.9994553,19.3409196 68.4759526,20.1662371 68.4759526,21.0594011 L68.4759526,21.0594011 L68.4759526,53.9405989 C68.4759526,54.8337629 67.9994553,55.6590804 67.2259526,56.1056624 L67.2259526,56.1056624 L38.75,72.5462614 C38.3632487,72.7695523 37.9316243,72.8811978 37.5,72.8811978 C37.0683757,72.8811978 36.6367513,72.7695523 36.25,72.5462614 L36.25,72.5462614 L7.77404736,56.1056624 C7.00054467,55.6590804 6.52404736,54.8337629 6.52404736,53.9405989 L6.52404736,53.9405989 L6.52404736,21.0594011 C6.52404736,20.1662371 7.00054467,19.3409196 7.77404736,18.8943376 L7.77404736,18.8943376 L36.25,2.45373864 C36.6367513,2.23044765 37.0683757,2.11880215 37.5,2.11880215 Z" id="Polygon-Copy" stroke="#0064D2" stroke-width="3"></path>
        <path d="M39.5,8.15470054 L61.9137748,21.0952995 C63.1513791,21.8098306 63.9137748,23.1303387 63.9137748,24.5594011 L63.9137748,50.4405989 C63.9137748,51.8696613 63.1513791,53.1901694 61.9137748,53.9047005 L39.5,66.8452995 C38.2623957,67.5598306 36.7376043,67.5598306 35.5,66.8452995 L13.0862252,53.9047005 C11.8486209,53.1901694 11.0862252,51.8696613 11.0862252,50.4405989 L11.0862252,24.5594011 C11.0862252,23.1303387 11.8486209,21.8098306 13.0862252,21.0952995 L35.5,8.15470054 C36.7376043,7.44016936 38.2623957,7.44016936 39.5,8.15470054 Z" id="Polygon-Copy-3" fill="#0064D2"></path>
        <path d="M18.5,24.5 L57.5,49.5 C46.3942331,59.5337634 39.5802079,65.4860508 37.0579245,67.3568622 C36.5178034,67.2967841 35.9866949,67.1262929 35.5,66.8452995 L13.0862252,53.9047005 C11.8486209,53.1901694 11.0862252,51.8696613 11.0862252,50.4405989 L11.086,31.689 L18.5,24.5 Z" id="Combined-Shape" fill-opacity="0.35" fill="url(#linearGradient-1)"></path>
        <g id="Group" transform="translate(15.500000, 23.000000)">
            <rect id="Rectangle" stroke="#FFFFFF" stroke-width="3" fill="#0057B8" x="1.5" y="1.5" width="41" height="26" rx="4"></rect>
            <path d="M10.953125,20.6953125 C11.953125,20.6953125 12.8151042,20.5429688 13.5390625,20.2382812 C14.2630208,19.9335938 14.8932292,19.5078125 15.4296875,18.9609375 C15.9401042,18.4348958 16.3307292,17.8072917 16.6015625,17.078125 C16.8723958,16.3489583 17.0078125,15.5807292 17.0078125,14.7734375 C17.0078125,13.8671875 16.8476562,13.0598958 16.5273438,12.3515625 C16.2070312,11.6432292 15.7734375,11.0390625 15.2265625,10.5390625 C14.6953125,10.0546875 14.0664062,9.67708333 13.3398438,9.40625 C12.6132812,9.13541667 11.8359375,9 11.0078125,9 C10.1744792,9 9.38932292,9.13932292 8.65234375,9.41796875 C7.91536458,9.69661458 7.27864583,10.09375 6.7421875,10.609375 C6.20052083,11.1354167 5.77473958,11.7669271 5.46484375,12.5039062 C5.15494792,13.2408854 5,14.0625 5,14.96875 C5,15.8385417 5.15885417,16.6276042 5.4765625,17.3359375 C5.79427083,18.0442708 6.22395833,18.6458333 6.765625,19.140625 C7.3125,19.6458333 7.9453125,20.03125 8.6640625,20.296875 C9.3828125,20.5625 10.1458333,20.6953125 10.953125,20.6953125 Z M11.0078125,19.9296875 C10.4817708,19.9296875 10.0390625,19.8007812 9.6796875,19.5429688 C9.3203125,19.2851562 9.0234375,18.9244792 8.7890625,18.4609375 C8.55989583,18.0026042 8.39192708,17.4661458 8.28515625,16.8515625 C8.17838542,16.2369792 8.125,15.5833333 8.125,14.890625 C8.125,13.2604167 8.36979167,11.9986979 8.859375,11.1054688 C9.34895833,10.2122396 10.0651042,9.765625 11.0078125,9.765625 C11.5598958,9.765625 12.0208333,9.90885417 12.390625,10.1953125 C12.7604167,10.4817708 13.0572917,10.8619792 13.28125,11.3359375 C13.5,11.8098958 13.6549479,12.3502604 13.7460938,12.9570312 C13.8372396,13.5638021 13.8828125,14.1875 13.8828125,14.828125 C13.8828125,15.5833333 13.8307292,16.2604167 13.7265625,16.859375 C13.6223958,17.4583333 13.453125,17.9947917 13.21875,18.46875 C13,18.921875 12.7057292,19.2786458 12.3359375,19.5390625 C11.9661458,19.7994792 11.5234375,19.9296875 11.0078125,19.9296875 Z M21.1453125,20.6875 C21.7078125,20.6875 22.2364583,20.6080729 22.73125,20.4492188 C23.2260417,20.2903646 23.6739583,20.0546875 24.075,19.7421875 C24.4708333,19.4244792 24.7820312,19.03125 25.0085937,18.5625 C25.2351562,18.09375 25.3484375,17.578125 25.3484375,17.015625 L25.3484375,17.015625 L25.3484375,10.90625 C25.3484375,10.71875 25.3783854,10.5520833 25.4382812,10.40625 C25.4981771,10.2604167 25.6348958,10.1588542 25.8484375,10.1015625 C26.0307292,10.0546875 26.1947917,10.0182292 26.340625,9.9921875 C26.4864583,9.96614583 26.6635417,9.94010417 26.871875,9.9140625 L26.871875,9.9140625 L26.871875,9.3046875 L20.95,9.3046875 L20.95,9.9140625 C21.0958333,9.93489583 21.2794271,9.96875 21.5007812,10.015625 C21.7221354,10.0625 21.9109375,10.1197917 22.0671875,10.1875 C22.2859375,10.28125 22.4239583,10.390625 22.48125,10.515625 C22.5385417,10.640625 22.5671875,10.796875 22.5671875,10.984375 L22.5671875,10.984375 L22.5671875,17.2421875 C22.5671875,18.1484375 22.3888021,18.8255208 22.0320312,19.2734375 C21.6752604,19.7213542 21.184375,19.9453125 20.559375,19.9453125 C20.3979167,19.9453125 20.2390625,19.9088542 20.0828125,19.8359375 C19.9265625,19.7630208 19.825,19.6744792 19.778125,19.5703125 L19.778125,19.5703125 L19.778125,19.46875 C20.075,19.2291667 20.3393229,18.9674479 20.5710937,18.6835938 C20.8028646,18.3997396 20.91875,18.0911458 20.91875,17.7578125 C20.91875,17.3671875 20.7846354,17.0390625 20.5164062,16.7734375 C20.2481771,16.5078125 19.8875,16.375 19.434375,16.375 C18.9552083,16.375 18.5789062,16.5338542 18.3054687,16.8515625 C18.0320312,17.1692708 17.8953125,17.5703125 17.8953125,18.0546875 C17.8953125,18.8723958 18.1934896,19.515625 18.7898437,19.984375 C19.3861979,20.453125 20.1713542,20.6875 21.1453125,20.6875 Z M36.0484375,20.390625 L36.0484375,19.78125 C35.8713542,19.7604167 35.6565104,19.7252604 35.4039062,19.6757812 C35.1513021,19.6263021 34.9651042,19.578125 34.8453125,19.53125 C34.6473958,19.4479167 34.5145833,19.3346354 34.446875,19.1914062 C34.3791667,19.0481771 34.3453125,18.8828125 34.3453125,18.6953125 L34.3453125,18.6953125 L34.3453125,10 L34.7125,10 C34.8895833,10 35.1005208,10.0078125 35.3453125,10.0234375 C35.5901042,10.0390625 35.7958333,10.0572917 35.9625,10.078125 C36.2645833,10.1197917 36.5940104,10.4114583 36.9507812,10.953125 C37.3075521,11.4947917 37.5666667,12.0026042 37.728125,12.4765625 L37.728125,12.4765625 L38.3296875,12.4765625 L38.3296875,9.3046875 L27.5875,9.3046875 L27.5875,12.4765625 L28.1890625,12.4765625 C28.3505208,12.0026042 28.6096354,11.4947917 28.9664062,10.953125 C29.3231771,10.4114583 29.6526042,10.1197917 29.9546875,10.078125 C30.1213542,10.0572917 30.3270833,10.0390625 30.571875,10.0234375 C30.8166667,10.0078125 31.0276042,10 31.2046875,10 L31.2046875,10 L31.571875,10 L31.571875,18.7734375 C31.571875,18.9661458 31.5380208,19.1328125 31.4703125,19.2734375 C31.4026042,19.4140625 31.2671875,19.5260417 31.0640625,19.609375 C30.9651042,19.6510417 30.7789062,19.6861979 30.5054687,19.7148438 C30.2320312,19.7434896 30.0197917,19.765625 29.86875,19.78125 L29.86875,19.78125 L29.86875,20.390625 L36.0484375,20.390625 Z" id="OJT" fill="#FFFFFF" fill-rule="nonzero"></path>
        </g>
    </g>
</svg>