<?xml version="1.0" encoding="UTF-8"?>
<svg width="75px" height="75px" viewBox="0 0 75 75" version="1.1" xmlns="http://www.w3.org/2000/svg" xmlns:xlink="http://www.w3.org/1999/xlink">
    <title>Icons/Programming/SE</title>
    <defs>
        <linearGradient x1="60.3706155%" y1="32.9576277%" x2="-3.67493782%" y2="88.0715554%" id="linearGradient-1">
            <stop stop-color="#002C5C" offset="0%"></stop>
            <stop stop-color="#00336B" stop-opacity="0.27" offset="100%"></stop>
        </linearGradient>
    </defs>
    <g id="Icons/Programming/SE" stroke="none" stroke-width="1" fill="none" fill-rule="evenodd">
        <rect id="Rectangle" fill="#FFFFFF" x="0" y="0" width="75" height="75"></rect>
        <rect id="Rectangle-Copy" fill="#FFFFFF" x="9" y="12" width="75" height="75"></rect>
        <path d="M37.5,2.11880215 C37.9316243,2.11880215 38.3632487,2.23044765 38.75,2.45373864 L38.75,2.45373864 L38.75,2.45373864 L67.2259526,18.8943376 C67.9994553,19.3409196 68.4759526,20.1662371 68.4759526,21.0594011 L68.4759526,21.0594011 L68.4759526,53.9405989 C68.4759526,54.8337629 67.9994553,55.6590804 67.2259526,56.1056624 L67.2259526,56.1056624 L38.75,72.5462614 C38.3632487,72.7695523 37.9316243,72.8811978 37.5,72.8811978 C37.0683757,72.8811978 36.6367513,72.7695523 36.25,72.5462614 L36.25,72.5462614 L7.77404736,56.1056624 C7.00054467,55.6590804 6.52404736,54.8337629 6.52404736,53.9405989 L6.52404736,53.9405989 L6.52404736,21.0594011 C6.52404736,20.1662371 7.00054467,19.3409196 7.77404736,18.8943376 L7.77404736,18.8943376 L36.25,2.45373864 C36.6367513,2.23044765 37.0683757,2.11880215 37.5,2.11880215 Z" id="Polygon-Copy" stroke="#0064D2" stroke-width="3"></path>
        <path d="M39.5,8.15470054 L61.9137748,21.0952995 C63.1513791,21.8098306 63.9137748,23.1303387 63.9137748,24.5594011 L63.9137748,50.4405989 C63.9137748,51.8696613 63.1513791,53.1901694 61.9137748,53.9047005 L39.5,66.8452995 C38.2623957,67.5598306 36.7376043,67.5598306 35.5,66.8452995 L13.0862252,53.9047005 C11.8486209,53.1901694 11.0862252,51.8696613 11.0862252,50.4405989 L11.0862252,24.5594011 C11.0862252,23.1303387 11.8486209,21.8098306 13.0862252,21.0952995 L35.5,8.15470054 C36.7376043,7.44016936 38.2623957,7.44016936 39.5,8.15470054 Z" id="Polygon-Copy-3" fill="#0064D2"></path>
        <path d="M18.5,24.5 L57.5,49.5 C46.3942331,59.5337634 39.5802079,65.4860508 37.0579245,67.3568622 C36.5178034,67.2967841 35.9866949,67.1262929 35.5,66.8452995 L13.0862252,53.9047005 C11.8486209,53.1901694 11.0862252,51.8696613 11.0862252,50.4405989 L11.086,31.689 L18.5,24.5 Z" id="Combined-Shape" fill-opacity="0.35" fill="url(#linearGradient-1)"></path>
        <g id="Group" transform="translate(16.000000, 23.000000)">
            <rect id="Rectangle" stroke="#FFFFFF" stroke-width="3" fill="#0057B8" x="1.5" y="1.5" width="40" height="26" rx="4"></rect>
            <path d="M14.0832031,21.3710938 C14.9946615,21.3710938 15.7921875,21.2604167 16.4757813,21.0390625 C17.159375,20.8177083 17.7615885,20.5019531 18.2824219,20.0917969 C18.7576823,19.7207031 19.1352865,19.2552083 19.4152344,18.6953125 C19.6951823,18.1354167 19.8351563,17.5559896 19.8351563,16.9570312 C19.8351563,16.0065104 19.589388,15.210612 19.0978516,14.5693359 C18.6063151,13.9280599 17.8885417,13.4251302 16.9445313,13.0605469 C16.5539063,12.9108073 16.1079427,12.7545573 15.6066406,12.5917969 C15.1053385,12.4290365 14.6138021,12.266276 14.1320313,12.1035156 C13.3117188,11.8365885 12.7078776,11.5273438 12.3205078,11.1757812 C11.933138,10.8242188 11.7394531,10.3717448 11.7394531,9.81835938 C11.7394531,9.23242188 11.9624349,8.74088542 12.4083984,8.34375 C12.854362,7.94661458 13.4289063,7.74804688 14.1320313,7.74804688 C14.6919271,7.74804688 15.1802083,7.86035156 15.596875,8.08496094 C16.0135417,8.30957031 16.3813802,8.61067708 16.7003906,8.98828125 C16.9933594,9.33984375 17.2716797,9.78092448 17.5353516,10.3115234 C17.7990234,10.8421224 18.0285156,11.3613281 18.2238281,11.8691406 L18.2238281,11.8691406 L19.0636719,11.8691406 L18.9855469,7.14257812 L18.1359375,7.14257812 L17.5402344,7.72851562 C17.1561198,7.51367188 16.628776,7.30045573 15.9582031,7.08886719 C15.2876302,6.87727865 14.5682292,6.77148438 13.8,6.77148438 C13.0122396,6.77148438 12.2830729,6.88867188 11.6125,7.12304688 C10.9419271,7.35742188 10.3917969,7.66015625 9.96210938,8.03125 C9.51289063,8.42838542 9.17109375,8.87597656 8.93671875,9.37402344 C8.70234375,9.87207031 8.58515625,10.391276 8.58515625,10.9316406 C8.58515625,11.7845052 8.81139323,12.5559896 9.26386719,13.2460938 C9.71634115,13.9361979 10.4080729,14.4667969 11.3390625,14.8378906 C11.7427083,14.9941406 12.1740234,15.1471354 12.6330078,15.296875 C13.0919922,15.4466146 13.5949219,15.609375 14.1417969,15.7851562 C14.9816406,16.0520833 15.6017578,16.3694661 16.0021484,16.7373047 C16.4025391,17.1051432 16.6027344,17.5592448 16.6027344,18.0996094 C16.6027344,18.7571615 16.3667318,19.3024089 15.8947266,19.7353516 C15.4227214,20.1682943 14.7440104,20.3847656 13.8585938,20.3847656 C13.2010417,20.3847656 12.6264974,20.2480469 12.1349609,19.9746094 C11.6434245,19.7011719 11.1990885,19.3463542 10.8019531,18.9101562 C10.4178385,18.4934896 10.0792969,18.0214844 9.78632813,17.4941406 C9.49335938,16.9667969 9.25247396,16.4654948 9.06367188,15.9902344 L9.06367188,15.9902344 L8.22382813,15.9902344 L8.35078125,21 L9.18085938,21 L9.8546875,20.3164062 C10.3625,20.6028646 10.9826172,20.8502604 11.7150391,21.0585938 C12.4474609,21.2669271 13.236849,21.3710938 14.0832031,21.3710938 Z M34.4492188,21 L34.7128906,16.6835938 L34,16.6835938 C33.8763021,17.0091146 33.6191406,17.4990234 33.2285156,18.1533203 C32.8378906,18.8076172 32.4863281,19.2942708 32.1738281,19.6132812 C32.0566406,19.7369792 31.8792318,19.8313802 31.6416016,19.8964844 C31.4039714,19.9615885 31.1484375,20.0104167 30.875,20.0429688 C30.6341146,20.0755208 30.3541667,20.0950521 30.0351562,20.1015625 C29.7161458,20.1080729 29.4427083,20.1113281 29.2148438,20.1113281 C28.7265625,20.1113281 28.3408203,20.0917969 28.0576172,20.0527344 C27.7744141,20.0136719 27.5514323,19.9322917 27.3886719,19.8085938 C27.219401,19.6783854 27.1038411,19.4912109 27.0419922,19.2470703 C26.9801432,19.0029297 26.9492188,18.672526 26.9492188,18.2558594 L26.9492188,18.2558594 L26.9492188,14.2617188 L28.375,14.2617188 C28.7591146,14.2617188 29.0976562,14.3056641 29.390625,14.3935547 C29.6835938,14.4814453 29.9375,14.6425781 30.1523438,14.8769531 C30.2955729,15.0332031 30.4469401,15.3180339 30.6064453,15.7314453 C30.7659505,16.1448568 30.8652344,16.4882812 30.9042969,16.7617188 L30.9042969,16.7617188 L31.6464844,16.7617188 L31.6464844,10.9804688 L30.9042969,10.9804688 C30.858724,11.2604167 30.7594401,11.5891927 30.6064453,11.9667969 C30.4534505,12.344401 30.3020833,12.6080729 30.1523438,12.7578125 C29.9114583,12.9986979 29.6445312,13.1614583 29.3515625,13.2460938 C29.0585938,13.3307292 28.7330729,13.3730469 28.375,13.3730469 L28.375,13.3730469 L26.9492188,13.3730469 L26.9492188,8.02148438 L28.9609375,8.02148438 C29.1888021,8.02148438 29.476888,8.02636719 29.8251953,8.03613281 C30.1735026,8.04589844 30.4453125,8.07356771 30.640625,8.11914062 C31.0963542,8.21679688 31.5553385,8.53580729 32.0175781,9.07617188 C32.4798177,9.61653646 32.8053385,10.1503906 32.9941406,10.6777344 L32.9941406,10.6777344 L33.7363281,10.6777344 L33.7363281,7.14257812 L21.4511719,7.14257812 L21.4511719,7.90429688 C21.6074219,7.92382812 21.8385417,7.96614583 22.1445312,8.03125 C22.4505208,8.09635417 22.688151,8.16796875 22.8574219,8.24609375 C23.1308594,8.36979167 23.3033854,8.50813802 23.375,8.66113281 C23.4466146,8.8141276 23.4824219,9.0078125 23.4824219,9.2421875 L23.4824219,9.2421875 L23.4824219,19.0175781 C23.4824219,19.264974 23.4401042,19.4684245 23.3554688,19.6279297 C23.2708333,19.7874349 23.1048177,19.9192708 22.8574219,20.0234375 C22.7272135,20.0755208 22.5058594,20.1210938 22.1933594,20.1601562 C21.8808594,20.1992188 21.6334635,20.2252604 21.4511719,20.2382812 L21.4511719,20.2382812 L21.4511719,21 L34.4492188,21 Z" id="SE" fill="#FFFFFF" fill-rule="nonzero"></path>
        </g>
    </g>
</svg>