<?xml version="1.0" encoding="UTF-8"?>
<svg width="75px" height="75px" viewBox="0 0 75 75" version="1.1" xmlns="http://www.w3.org/2000/svg" xmlns:xlink="http://www.w3.org/1999/xlink">
    <title>Icons/Programming/SSE</title>
    <defs>
        <linearGradient x1="60.3706155%" y1="32.9576277%" x2="-3.67493782%" y2="88.0715554%" id="linearGradient-1">
            <stop stop-color="#002C5C" offset="0%"></stop>
            <stop stop-color="#00336B" stop-opacity="0.27" offset="100%"></stop>
        </linearGradient>
    </defs>
    <g id="Icons/Programming/SSE" stroke="none" stroke-width="1" fill="none" fill-rule="evenodd">
        <rect id="Rectangle" fill="#FFFFFF" x="0" y="0" width="75" height="75"></rect>
        <rect id="Rectangle-Copy" fill="#FFFFFF" x="9" y="12" width="75" height="75"></rect>
        <path d="M37.5,2.11880215 C37.9316243,2.11880215 38.3632487,2.23044765 38.75,2.45373864 L38.75,2.45373864 L38.75,2.45373864 L67.2259526,18.8943376 C67.9994553,19.3409196 68.4759526,20.1662371 68.4759526,21.0594011 L68.4759526,21.0594011 L68.4759526,53.9405989 C68.4759526,54.8337629 67.9994553,55.6590804 67.2259526,56.1056624 L67.2259526,56.1056624 L38.75,72.5462614 C38.3632487,72.7695523 37.9316243,72.8811978 37.5,72.8811978 C37.0683757,72.8811978 36.6367513,72.7695523 36.25,72.5462614 L36.25,72.5462614 L7.77404736,56.1056624 C7.00054467,55.6590804 6.52404736,54.8337629 6.52404736,53.9405989 L6.52404736,53.9405989 L6.52404736,21.0594011 C6.52404736,20.1662371 7.00054467,19.3409196 7.77404736,18.8943376 L7.77404736,18.8943376 L36.25,2.45373864 C36.6367513,2.23044765 37.0683757,2.11880215 37.5,2.11880215 Z" id="Polygon-Copy" stroke="#0064D2" stroke-width="3"></path>
        <path d="M39.5,8.15470054 L61.9137748,21.0952995 C63.1513791,21.8098306 63.9137748,23.1303387 63.9137748,24.5594011 L63.9137748,50.4405989 C63.9137748,51.8696613 63.1513791,53.1901694 61.9137748,53.9047005 L39.5,66.8452995 C38.2623957,67.5598306 36.7376043,67.5598306 35.5,66.8452995 L13.0862252,53.9047005 C11.8486209,53.1901694 11.0862252,51.8696613 11.0862252,50.4405989 L11.0862252,24.5594011 C11.0862252,23.1303387 11.8486209,21.8098306 13.0862252,21.0952995 L35.5,8.15470054 C36.7376043,7.44016936 38.2623957,7.44016936 39.5,8.15470054 Z" id="Polygon-Copy-3" fill="#0064D2"></path>
        <path d="M18.5,24.5 L57.5,49.5 C46.3942331,59.5337634 39.5802079,65.4860508 37.0579245,67.3568622 C36.5178034,67.2967841 35.9866949,67.1262929 35.5,66.8452995 L13.0862252,53.9047005 C11.8486209,53.1901694 11.0862252,51.8696613 11.0862252,50.4405989 L11.086,31.689 L18.5,24.5 Z" id="Combined-Shape" fill-opacity="0.35" fill="url(#linearGradient-1)"></path>
        <g id="Group" transform="translate(14.500000, 23.000000)">
            <rect id="Rectangle" stroke="#FFFFFF" stroke-width="3" fill="#0057B8" x="1.5" y="1.5" width="43" height="26" rx="4"></rect>
            <path d="M10.9804688,20.409668 C11.7552083,20.409668 12.4331055,20.3155924 13.0141602,20.1274414 C13.5952148,19.9392904 14.1070964,19.6708984 14.5498047,19.3222656 C14.953776,19.0068359 15.2747396,18.6111654 15.5126953,18.1352539 C15.750651,17.6593424 15.8696289,17.1668294 15.8696289,16.6577148 C15.8696289,15.8497721 15.6607259,15.1732585 15.2429199,14.6281738 C14.8251139,14.0830892 14.2150065,13.655599 13.4125977,13.3457031 C13.0805664,13.2184245 12.7014974,13.085612 12.2753906,12.9472656 C11.8492839,12.8089193 11.4314779,12.6705729 11.0219727,12.5322266 C10.324707,12.3053385 9.81144206,12.0424805 9.48217773,11.7436523 C9.15291341,11.4448242 8.98828125,11.0602214 8.98828125,10.5898438 C8.98828125,10.0917969 9.17781576,9.67399089 9.55688477,9.33642578 C9.93595378,8.99886068 10.4243164,8.83007812 11.0219727,8.83007812 C11.4978841,8.83007812 11.9129232,8.92553711 12.2670898,9.11645508 C12.6212565,9.30737305 12.9339193,9.5633138 13.2050781,9.88427734 C13.4541016,10.1831055 13.6906738,10.5580241 13.9147949,11.0090332 C14.138916,11.4600423 14.3339844,11.9013672 14.5,12.3330078 L14.5,12.3330078 L15.2138672,12.3330078 L15.1474609,8.31542969 L14.425293,8.31542969 L13.9189453,8.81347656 C13.5924479,8.63085938 13.1442057,8.44962565 12.5742188,8.26977539 C12.0042318,8.08992513 11.3927409,8 10.7397461,8 C10.0701497,8 9.45035807,8.09960938 8.88037109,8.29882812 C8.31038411,8.49804688 7.84277344,8.75537109 7.47753906,9.07080078 C7.09570312,9.40836589 6.80517578,9.78881836 6.60595703,10.2121582 C6.40673828,10.635498 6.30712891,11.0768229 6.30712891,11.5361328 C6.30712891,12.2610677 6.49943034,12.9168294 6.8840332,13.503418 C7.26863607,14.0900065 7.85660807,14.5410156 8.64794922,14.8564453 C8.99104818,14.9892578 9.35766602,15.1193034 9.74780273,15.246582 C10.1379395,15.3738607 10.5654297,15.512207 11.0302734,15.6616211 C11.7441406,15.8885091 12.2712402,16.1582845 12.6115723,16.4709473 C12.9519043,16.78361 13.1220703,17.1695964 13.1220703,17.6289062 C13.1220703,18.1878255 12.9214681,18.6512858 12.5202637,19.0192871 C12.1190592,19.3872884 11.5421549,19.5712891 10.7895508,19.5712891 C10.2306315,19.5712891 9.74226888,19.4550781 9.32446289,19.2226562 C8.9066569,18.9902344 8.52897135,18.6886393 8.19140625,18.3178711 C7.86490885,17.9637044 7.57714844,17.5625 7.328125,17.1142578 C7.07910156,16.6660156 6.87434896,16.2399089 6.71386719,15.8359375 L6.71386719,15.8359375 L6,15.8359375 L6.10791016,20.0942383 L6.81347656,20.0942383 L7.38623047,19.5131836 C7.81787109,19.7566732 8.3449707,19.9669596 8.9675293,20.144043 C9.59008789,20.3211263 10.2610677,20.409668 10.9804688,20.409668 Z M22.212207,20.409668 C22.9869466,20.409668 23.6648437,20.3155924 24.2458984,20.1274414 C24.8269531,19.9392904 25.3388346,19.6708984 25.781543,19.3222656 C26.1855143,19.0068359 26.5064779,18.6111654 26.7444336,18.1352539 C26.9823893,17.6593424 27.1013672,17.1668294 27.1013672,16.6577148 C27.1013672,15.8497721 26.8924642,15.1732585 26.4746582,14.6281738 C26.0568522,14.0830892 25.4467448,13.655599 24.6443359,13.3457031 C24.3123047,13.2184245 23.9332357,13.085612 23.5071289,12.9472656 C23.0810221,12.8089193 22.6632161,12.6705729 22.2537109,12.5322266 C21.5564453,12.3053385 21.0431803,12.0424805 20.713916,11.7436523 C20.3846517,11.4448242 20.2200195,11.0602214 20.2200195,10.5898438 C20.2200195,10.0917969 20.409554,9.67399089 20.788623,9.33642578 C21.1676921,8.99886068 21.6560547,8.83007812 22.2537109,8.83007812 C22.7296224,8.83007812 23.1446615,8.92553711 23.4988281,9.11645508 C23.8529948,9.30737305 24.1656576,9.5633138 24.4368164,9.88427734 C24.6858398,10.1831055 24.9224121,10.5580241 25.1465332,11.0090332 C25.3706543,11.4600423 25.5657227,11.9013672 25.7317383,12.3330078 L25.7317383,12.3330078 L26.4456055,12.3330078 L26.3791992,8.31542969 L25.6570312,8.31542969 L25.1506836,8.81347656 C24.8241862,8.63085938 24.375944,8.44962565 23.805957,8.26977539 C23.2359701,8.08992513 22.6244792,8 21.9714844,8 C21.301888,8 20.6820964,8.09960938 20.1121094,8.29882812 C19.5421224,8.49804688 19.0745117,8.75537109 18.7092773,9.07080078 C18.3274414,9.40836589 18.0369141,9.78881836 17.8376953,10.2121582 C17.6384766,10.635498 17.5388672,11.0768229 17.5388672,11.5361328 C17.5388672,12.2610677 17.7311686,12.9168294 18.1157715,13.503418 C18.5003743,14.0900065 19.0883464,14.5410156 19.8796875,14.8564453 C20.2227865,14.9892578 20.5894043,15.1193034 20.979541,15.246582 C21.3696777,15.3738607 21.797168,15.512207 22.2620117,15.6616211 C22.9758789,15.8885091 23.5029785,16.1582845 23.8433105,16.4709473 C24.1836426,16.78361 24.3538086,17.1695964 24.3538086,17.6289062 C24.3538086,18.1878255 24.1532064,18.6512858 23.752002,19.0192871 C23.3507975,19.3872884 22.7738932,19.5712891 22.0212891,19.5712891 C21.4623698,19.5712891 20.9740072,19.4550781 20.5562012,19.2226562 C20.1383952,18.9902344 19.7607096,18.6886393 19.4231445,18.3178711 C19.0966471,17.9637044 18.8088867,17.5625 18.5598633,17.1142578 C18.3108398,16.6660156 18.1060872,16.2399089 17.9456055,15.8359375 L17.9456055,15.8359375 L17.2317383,15.8359375 L17.3396484,20.0942383 L18.0452148,20.0942383 L18.6179687,19.5131836 C19.0496094,19.7566732 19.576709,19.9669596 20.1992676,20.144043 C20.8218262,20.3211263 21.492806,20.409668 22.212207,20.409668 Z M39.5533203,20.0942383 L39.7774414,16.425293 L39.1714844,16.425293 C39.0663411,16.7019857 38.8477539,17.1184082 38.5157227,17.6745605 C38.1836914,18.2307129 37.8848633,18.6443685 37.6192383,18.9155273 C37.5196289,19.0206706 37.3688314,19.1009115 37.1668457,19.15625 C36.96486,19.2115885 36.7476562,19.2530924 36.5152344,19.2807617 C36.3104818,19.308431 36.072526,19.3250326 35.8013672,19.3305664 C35.5302083,19.3361003 35.2977865,19.3388672 35.1041016,19.3388672 C34.6890625,19.3388672 34.3611816,19.3222656 34.120459,19.2890625 C33.8797363,19.2558594 33.6902018,19.1866862 33.5518555,19.081543 C33.4079753,18.9708659 33.3097493,18.8117676 33.2571777,18.604248 C33.2046061,18.3967285 33.1783203,18.1158854 33.1783203,17.7617188 L33.1783203,17.7617188 L33.1783203,14.3666992 L34.3902344,14.3666992 C34.7167318,14.3666992 35.0044922,14.4040527 35.2535156,14.4787598 C35.5025391,14.5534668 35.7183594,14.6904297 35.9009766,14.8896484 C36.0227214,15.0224609 36.1513835,15.2645671 36.2869629,15.6159668 C36.4225423,15.9673665 36.5069336,16.2592773 36.5401367,16.4916992 L36.5401367,16.4916992 L37.1709961,16.4916992 L37.1709961,11.5776367 L36.5401367,11.5776367 C36.5013997,11.8155924 36.4170085,12.0950521 36.2869629,12.4160156 C36.1569173,12.7369792 36.0282552,12.9611003 35.9009766,13.0883789 C35.696224,13.2931315 35.4693359,13.4314779 35.2203125,13.503418 C34.9712891,13.5753581 34.6945964,13.6113281 34.3902344,13.6113281 L34.3902344,13.6113281 L33.1783203,13.6113281 L33.1783203,9.0625 L34.8882812,9.0625 C35.0819661,9.0625 35.3268392,9.06665039 35.6229004,9.07495117 C35.9189616,9.08325195 36.15,9.10677083 36.3160156,9.14550781 C36.7033854,9.22851562 37.0935221,9.49967448 37.4864258,9.95898438 C37.8793294,10.4182943 38.1560221,10.8720703 38.3165039,11.3203125 L38.3165039,11.3203125 L38.9473633,11.3203125 L38.9473633,8.31542969 L28.5049805,8.31542969 L28.5049805,8.96289062 C28.637793,8.97949219 28.8342448,9.01546224 29.0943359,9.07080078 C29.3544271,9.12613932 29.5564128,9.18701172 29.700293,9.25341797 C29.9327148,9.3585612 30.079362,9.4761556 30.1402344,9.60620117 C30.2011068,9.73624674 30.231543,9.90087891 30.231543,10.1000977 L30.231543,10.1000977 L30.231543,18.4091797 C30.231543,18.6194661 30.1955729,18.7923991 30.1236328,18.9279785 C30.0516927,19.0635579 29.9105794,19.1756185 29.700293,19.2641602 C29.5896159,19.308431 29.4014648,19.347168 29.1358398,19.3803711 C28.8702148,19.4135742 28.6599284,19.4357096 28.5049805,19.4467773 L28.5049805,19.4467773 L28.5049805,20.0942383 L39.5533203,20.0942383 Z" id="SSE" fill="#FFFFFF" fill-rule="nonzero"></path>
        </g>
    </g>
</svg>