<?xml version="1.0" encoding="UTF-8"?>
<svg width="24px" height="21px" viewBox="0 0 24 21" version="1.1" xmlns="http://www.w3.org/2000/svg" xmlns:xlink="http://www.w3.org/1999/xlink">
    <title>Icons/Fax</title>
    <g id="Page-1" stroke="none" stroke-width="1" fill="none" fill-rule="evenodd">
        <g id="Contact_S" transform="translate(-17.000000, -756.000000)" fill="#8F8F8F" fill-rule="nonzero">
            <g id="Content" transform="translate(16.000000, 503.000000)">
                <g id="Tel-Copy-2" transform="translate(1.000000, 251.000000)">
                    <g id="iconfinder_fax_1608694" transform="translate(0.000000, 2.000000)">
                        <path d="M3.78842593,4.39677027 C4.36721322,4.39677027 4.86269023,4.57615239 5.27485694,4.93491663 C5.68702365,5.29368087 5.893107,5.72496128 5.893107,6.22875788 L5.893107,18.6862736 C5.893107,19.1900702 5.68702365,19.6213506 5.27485694,19.9801149 C4.86269023,20.3388791 4.36721322,20.5182612 3.78842593,20.5182612 L2.10468107,20.5182612 C1.52589378,20.5182612 1.03041677,20.3388791 0.618250065,19.9801149 C0.206083355,19.6213506 0,19.1900702 0,18.6862736 L0,6.22875788 C0,5.72496128 0.206083355,5.29368087 0.618250065,4.93491663 C1.03041677,4.57615239 1.52589378,4.39677027 2.10468107,4.39677027 L3.78842593,4.39677027 Z M21.8886831,6.26310764 C22.3973144,6.52263922 22.8050964,6.87758682 23.112029,7.32795044 C23.4189617,7.77831406 23.572428,8.26684409 23.572428,8.79354053 L23.572428,17.5870811 C23.572428,18.3962089 23.2435716,19.0870209 22.5858587,19.659517 C21.9281459,20.2320132 21.1345058,20.5182612 20.2049383,20.5182612 L8.8396605,20.5182612 C8.26087321,20.5182612 7.7653962,20.3388791 7.35322949,19.9801149 C6.94106278,19.6213506 6.73497943,19.1900702 6.73497943,18.6862736 L6.73497943,1.09919257 C6.73497943,0.793861298 6.85775249,0.53432972 7.10329862,0.320597832 C7.34884474,0.106865944 7.64700789,0 7.99778807,0 L16.8374486,0 C17.1882287,0 17.5740869,0.0763328171 17.9950232,0.228998451 C18.4159594,0.381664086 18.7492005,0.564862847 18.9947467,0.778594735 L20.9941937,2.51898296 C21.2397398,2.73271485 21.4502079,3.02277956 21.625598,3.38917708 C21.8009881,3.7555746 21.8886831,4.091439 21.8886831,4.39677027 L21.8886831,6.26310764 Z M12.2071502,17.5870811 L12.2071502,16.121491 C12.2071502,16.014625 12.1676874,15.9268423 12.0887619,15.8581428 C12.0098364,15.7894432 11.9089871,15.7550935 11.786214,15.7550935 L10.1024691,15.7550935 C9.97969608,15.7550935 9.87884678,15.7894432 9.79992124,15.8581428 C9.7209957,15.9268423 9.68153293,16.014625 9.68153293,16.121491 L9.68153293,17.5870811 C9.68153293,17.693947 9.7209957,17.7817297 9.79992124,17.8504293 C9.87884678,17.9191288 9.97969608,17.9534786 10.1024691,17.9534786 L11.786214,17.9534786 C11.9089871,17.9534786 12.0098364,17.9191288 12.0887619,17.8504293 C12.1676874,17.7817297 12.2071502,17.693947 12.2071502,17.5870811 Z M12.2071502,14.6559009 L12.2071502,13.1903108 C12.2071502,13.0834449 12.1676874,12.9956621 12.0887619,12.9269626 C12.0098364,12.858263 11.9089871,12.8239133 11.786214,12.8239133 L10.1024691,12.8239133 C9.97969608,12.8239133 9.87884678,12.858263 9.79992124,12.9269626 C9.7209957,12.9956621 9.68153293,13.0834449 9.68153293,13.1903108 L9.68153293,14.6559009 C9.68153293,14.7627668 9.7209957,14.8505496 9.79992124,14.9192491 C9.87884678,14.9879486 9.97969608,15.0222984 10.1024691,15.0222984 L11.786214,15.0222984 C11.9089871,15.0222984 12.0098364,14.9879486 12.0887619,14.9192491 C12.1676874,14.8505496 12.2071502,14.7627668 12.2071502,14.6559009 Z M12.2071502,11.7247207 L12.2071502,10.2591306 C12.2071502,10.1522647 12.1676874,10.0644819 12.0887619,9.9957824 C12.0098364,9.92708287 11.9089871,9.8927331 11.786214,9.8927331 L10.1024691,9.8927331 C9.97969608,9.8927331 9.87884678,9.92708287 9.79992124,9.9957824 C9.7209957,10.0644819 9.68153293,10.1522647 9.68153293,10.2591306 L9.68153293,11.7247207 C9.68153293,11.8315867 9.7209957,11.9193694 9.79992124,11.9880689 C9.87884678,12.0567685 9.97969608,12.0911182 10.1024691,12.0911182 L11.786214,12.0911182 C11.9089871,12.0911182 12.0098364,12.0567685 12.0887619,11.9880689 C12.1676874,11.9193694 12.2071502,11.8315867 12.2071502,11.7247207 Z M15.5746399,17.5870811 L15.5746399,16.121491 C15.5746399,16.014625 15.5351772,15.9268423 15.4562516,15.8581428 C15.3773261,15.7894432 15.2764768,15.7550935 15.1537037,15.7550935 L13.4699589,15.7550935 C13.3471858,15.7550935 13.2463365,15.7894432 13.167411,15.8581428 C13.0884854,15.9268423 13.0490226,16.014625 13.0490226,16.121491 L13.0490226,17.5870811 C13.0490226,17.693947 13.0884854,17.7817297 13.167411,17.8504293 C13.2463365,17.9191288 13.3471858,17.9534786 13.4699589,17.9534786 L15.1537037,17.9534786 C15.2764768,17.9534786 15.3773261,17.9191288 15.4562516,17.8504293 C15.5351772,17.7817297 15.5746399,17.693947 15.5746399,17.5870811 Z M15.5746399,14.6559009 L15.5746399,13.1903108 C15.5746399,13.0834449 15.5351772,12.9956621 15.4562516,12.9269626 C15.3773261,12.858263 15.2764768,12.8239133 15.1537037,12.8239133 L13.4699589,12.8239133 C13.3471858,12.8239133 13.2463365,12.858263 13.167411,12.9269626 C13.0884854,12.9956621 13.0490226,13.0834449 13.0490226,13.1903108 L13.0490226,14.6559009 C13.0490226,14.7627668 13.0884854,14.8505496 13.167411,14.9192491 C13.2463365,14.9879486 13.3471858,15.0222984 13.4699589,15.0222984 L15.1537037,15.0222984 C15.2764768,15.0222984 15.3773261,14.9879486 15.4562516,14.9192491 C15.5351772,14.8505496 15.5746399,14.7627668 15.5746399,14.6559009 Z M15.5746399,11.7247207 L15.5746399,10.2591306 C15.5746399,10.1522647 15.5351772,10.0644819 15.4562516,9.9957824 C15.3773261,9.92708287 15.2764768,9.8927331 15.1537037,9.8927331 L13.4699589,9.8927331 C13.3471858,9.8927331 13.2463365,9.92708287 13.167411,9.9957824 C13.0884854,10.0644819 13.0490226,10.1522647 13.0490226,10.2591306 L13.0490226,11.7247207 C13.0490226,11.8315867 13.0884854,11.9193694 13.167411,11.9880689 C13.2463365,12.0567685 13.3471858,12.0911182 13.4699589,12.0911182 L15.1537037,12.0911182 C15.2764768,12.0911182 15.3773261,12.0567685 15.4562516,11.9880689 C15.5351772,11.9193694 15.5746399,11.8315867 15.5746399,11.7247207 Z M18.9421296,17.5870811 L18.9421296,16.121491 C18.9421296,16.014625 18.9026669,15.9268423 18.8237413,15.8581428 C18.7448158,15.7894432 18.6439665,15.7550935 18.5211934,15.7550935 L16.8374486,15.7550935 C16.7146755,15.7550935 16.6138262,15.7894432 16.5349007,15.8581428 C16.4559751,15.9268423 16.4165124,16.014625 16.4165124,16.121491 L16.4165124,17.5870811 C16.4165124,17.693947 16.4559751,17.7817297 16.5349007,17.8504293 C16.6138262,17.9191288 16.7146755,17.9534786 16.8374486,17.9534786 L18.5211934,17.9534786 C18.6439665,17.9534786 18.7448158,17.9191288 18.8237413,17.8504293 C18.9026669,17.7817297 18.9421296,17.693947 18.9421296,17.5870811 Z M18.9421296,14.6559009 L18.9421296,13.1903108 C18.9421296,13.0834449 18.9026669,12.9956621 18.8237413,12.9269626 C18.7448158,12.858263 18.6439665,12.8239133 18.5211934,12.8239133 L16.8374486,12.8239133 C16.7146755,12.8239133 16.6138262,12.858263 16.5349007,12.9269626 C16.4559751,12.9956621 16.4165124,13.0834449 16.4165124,13.1903108 L16.4165124,14.6559009 C16.4165124,14.7627668 16.4559751,14.8505496 16.5349007,14.9192491 C16.6138262,14.9879486 16.7146755,15.0222984 16.8374486,15.0222984 L18.5211934,15.0222984 C18.6439665,15.0222984 18.7448158,14.9879486 18.8237413,14.9192491 C18.9026669,14.8505496 18.9421296,14.7627668 18.9421296,14.6559009 Z M18.9421296,11.7247207 L18.9421296,10.2591306 C18.9421296,10.1522647 18.9026669,10.0644819 18.8237413,9.9957824 C18.7448158,9.92708287 18.6439665,9.8927331 18.5211934,9.8927331 L16.8374486,9.8927331 C16.7146755,9.8927331 16.6138262,9.92708287 16.5349007,9.9957824 C16.4559751,10.0644819 16.4165124,10.1522647 16.4165124,10.2591306 L16.4165124,11.7247207 C16.4165124,11.8315867 16.4559751,11.9193694 16.5349007,11.9880689 C16.6138262,12.0567685 16.7146755,12.0911182 16.8374486,12.0911182 L18.5211934,12.0911182 C18.6439665,12.0911182 18.7448158,12.0567685 18.8237413,11.9880689 C18.9026669,11.9193694 18.9421296,11.8315867 18.9421296,11.7247207 Z M20.2049383,7.32795044 L20.2049383,4.39677027 L18.1002572,4.39677027 C17.749477,4.39677027 17.4513139,4.28990432 17.2057678,4.07617243 C16.9602216,3.86244055 16.8374486,3.60290897 16.8374486,3.2975777 L16.8374486,1.46559009 L8.41872429,1.46559009 L8.41872429,7.32795044 L20.2049383,7.32795044 Z" id="Shape"></path>
                    </g>
                </g>
            </g>
        </g>
    </g>
</svg>