<?xml version="1.0" encoding="UTF-8"?>
<svg width="14px" height="20px" viewBox="0 0 14 20" version="1.1" xmlns="http://www.w3.org/2000/svg" xmlns:xlink="http://www.w3.org/1999/xlink">
    <title>Icons/location</title>
    <g id="Page-1" stroke="none" stroke-width="1" fill="none" fill-rule="evenodd">
        <g id="Contact_S" transform="translate(-22.000000, -598.000000)">
            <g id="Content" transform="translate(16.000000, 503.000000)">
                <g id="Group" transform="translate(1.000000, 90.000000)">
                    <g transform="translate(0.000000, 3.000000)" id="location_on-24px">
                        <polygon id="Path" points="0 0 24 0 24 24 0 24"></polygon>
                        <path d="M12,2 C8.13,2 5,5.13 5,9 C5,13.17 9.42,18.92 11.24,21.11 C11.64,21.59 12.37,21.59 12.77,21.11 C14.58,18.92 19,13.17 19,9 C19,5.13 15.87,2 12,2 Z M12,11.5 C10.62,11.5 9.5,10.38 9.5,9 C9.5,7.62 10.62,6.5 12,6.5 C13.38,6.5 14.5,7.62 14.5,9 C14.5,10.38 13.38,11.5 12,11.5 Z" id="Shape" fill="#8F8F8F" fill-rule="nonzero"></path>
                    </g>
                </g>
            </g>
        </g>
    </g>
</svg>