<?xml version="1.0" encoding="UTF-8"?>
<svg width="178px" height="133px" viewBox="0 0 178 133" version="1.1" xmlns="http://www.w3.org/2000/svg" xmlns:xlink="http://www.w3.org/1999/xlink">
    <title>CDA4CF44-8449-40A1-A237-4F283FFDCD6B</title>
    <defs>
        <rect id="path-1" x="27" y="0" width="1603" height="420"></rect>
        <filter x="-0.2%" y="-0.7%" width="100.4%" height="101.4%" filterUnits="objectBoundingBox" id="filter-2">
            <feOffset dx="0" dy="0" in="SourceAlpha" result="shadowOffsetOuter1"></feOffset>
            <feGaussianBlur stdDeviation="1" in="shadowOffsetOuter1" result="shadowBlurOuter1"></feGaussianBlur>
            <feColorMatrix values="0 0 0 0 0.4876   0 0 0 0 0.549556069   0 0 0 0 0.6724  0 0 0 0.43 0" type="matrix" in="shadowBlurOuter1"></feColorMatrix>
        </filter>
    </defs>
    <g id="V2-Copy" stroke="none" stroke-width="1" fill="none" fill-rule="evenodd">
        <g id="Contact_L_v2.0-Copy" transform="translate(-1468.000000, -270.000000)">
            <rect fill="#FAFAFA" x="0" y="0" width="1600" height="2001"></rect>
            <g id="Banner" transform="translate(-30.000000, 97.000000)" fill-rule="nonzero">
                <g id="Rectangle">
                    <use fill="black" fill-opacity="1" filter="url(#filter-2)" xlink:href="#path-1"></use>
                    <use fill="#E0E8F2" xlink:href="#path-1"></use>
                </g>
                <g id="Icons/Mail_in_contact" transform="translate(1498.000000, 173.000000)" opacity="0.55687314">
                    <g id="1-Email" transform="translate(89.000000, 66.500000) rotate(11.000000) translate(-89.000000, -66.500000) translate(9.000000, 15.000000)">
                        <path d="M159.744238,5.95841701 L159.744238,89.5133959 C159.737754,92.6784665 158.298397,95.7133809 155.739052,97.958417 L94.7027446,44.7518001 L93.7442384,43.4686343 L159.744238,5.95841701 Z" id="Path" fill="#7EB2F6"></path>
                        <path d="M154.961774,98.8812602 C152.359804,101.113019 148.842375,102.368143 145.174096,102.373797 L13.7494511,102.373797 C10.0811725,102.368143 6.56374336,101.113019 3.96177357,98.8812602 L65.6276004,45.6573796 L66.4922362,44.4932005 L79.4617736,51.6275288 L92.3275546,44.3737975 L93.2959467,45.6573796 L154.961774,98.8812602 Z" id="Path" fill="#4796FF"></path>
                        <path d="M66.2861891,43.7993405 L65.429047,44.9555697 L4.29767689,97.8159961 C1.7343451,95.5855673 0.292746477,92.5703997 0.286189086,89.4259228 L0.286189086,12.3439774 C0.28202679,11.1476081 0.490163685,9.95776404 0.903394414,8.81599605 L3.7148203,9.37928719 L66.2861891,43.7993405 Z" id="Path" fill="#7EB2F6"></path>
                        <path d="M159.896241,6.22463899 L93.4134821,43.9346391 L80.5858959,51.224639 L67.6548614,44.0546391 L4.72382691,9.22463899 L1.89624071,8.65463938 C3.69267867,3.63905649 9.03020701,0.22317811 15.0686545,0.224638992 L142.654861,0.224638992 C156.447965,0.224638992 159.896241,6.22463899 159.896241,6.22463899 Z" id="Path" fill="#ADD1FF"></path>
                    </g>
                </g>
            </g>
        </g>
    </g>
</svg>