<?xml version="1.0" encoding="UTF-8"?>
<svg width="142px" height="191px" viewBox="0 0 142 191" version="1.1" xmlns="http://www.w3.org/2000/svg" xmlns:xlink="http://www.w3.org/1999/xlink">
    <title>22C010ED-CEB4-48D0-A4C3-FC337B018F8D</title>
    <defs>
        <rect id="path-1" x="27" y="0" width="1603" height="420"></rect>
        <filter x="-0.2%" y="-0.7%" width="100.4%" height="101.4%" filterUnits="objectBoundingBox" id="filter-2">
            <feOffset dx="0" dy="0" in="SourceAlpha" result="shadowOffsetOuter1"></feOffset>
            <feGaussianBlur stdDeviation="1" in="shadowOffsetOuter1" result="shadowBlurOuter1"></feGaussianBlur>
            <feColorMatrix values="0 0 0 0 0.4876   0 0 0 0 0.549556069   0 0 0 0 0.6724  0 0 0 0.43 0" type="matrix" in="shadowBlurOuter1"></feColorMatrix>
        </filter>
        <filter x="-62.9%" y="-42.2%" width="225.9%" height="184.4%" filterUnits="objectBoundingBox" id="filter-3">
            <feOffset dx="0" dy="2" in="SourceAlpha" result="shadowOffsetOuter1"></feOffset>
            <feGaussianBlur stdDeviation="18" in="shadowOffsetOuter1" result="shadowBlurOuter1"></feGaussianBlur>
            <feColorMatrix values="0 0 0 0 0   0 0 0 0 0   0 0 0 0 0  0 0 0 0 0" type="matrix" in="shadowBlurOuter1" result="shadowMatrixOuter1"></feColorMatrix>
            <feMerge>
                <feMergeNode in="shadowMatrixOuter1"></feMergeNode>
                <feMergeNode in="SourceGraphic"></feMergeNode>
            </feMerge>
        </filter>
    </defs>
    <g id="V2-Copy" stroke="none" stroke-width="1" fill="none" fill-rule="evenodd">
        <g id="Contact_L_v2.0-Copy" transform="translate(30.000000, -231.000000)">
            <rect fill="#FAFAFA" x="0" y="0" width="1600" height="2001"></rect>
            <g id="Banner" transform="translate(-30.000000, 97.000000)">
                <g id="Rectangle" fill-rule="nonzero">
                    <use fill="black" fill-opacity="1" filter="url(#filter-2)" xlink:href="#path-1"></use>
                    <use fill="#E0E8F2" xlink:href="#path-1"></use>
                </g>
                <g id="14-Smartphone" transform="translate(71.000000, 229.500000) rotate(-9.000000) translate(-71.000000, -229.500000) translate(13.000000, 143.000000)" filter="url(#filter-3)">
                    <path d="M112.513284,130 L115.350055,140.419088 C117.438996,148.091493 114.326147,155.578619 108.397312,157.142054 L49.3542372,172.711719 C43.4254027,174.275153 36.9257117,169.322854 34.8367711,161.65045 L32,151.231362 L112.513284,130 Z" id="Path" fill="#B8D5FA" fill-rule="nonzero"></path>
                    <path d="M76.9231515,157.811274 C79.8564871,157.025289 81.5972587,154.010184 80.8112738,151.076848 C80.0252889,148.143513 77.010184,146.402741 74.0768485,147.188726 C71.1435129,147.974711 69.4027413,150.989816 70.1887262,153.923152 C70.9747111,156.856487 73.989816,158.597259 76.9231515,157.811274 Z" id="Oval" fill="#699FE7"></path>
                    <path d="M80.1969999,11.3495501 L83,21.7686381 L3.44520746,43 L0.642207401,32.580912 C-1.42186485,24.9085074 1.6539265,17.4213807 7.51217966,15.8579464 L65.8523609,0.288280971 C71.710614,-1.27515335 78.1329277,3.67714552 80.1969999,11.3495501 Z" id="Path" fill="#B8D5FA" fill-rule="nonzero"></path>
                    <polygon id="Path" fill="#99C5FF" fill-rule="nonzero" points="113 130.650586 32.4366579 152 3 43.3494137 83.5633421 22 88.1628199 38.9766541"></polygon>
                </g>
            </g>
        </g>
    </g>
</svg>