<?xml version="1.0" encoding="UTF-8"?>
<svg width="48px" height="48px" viewBox="0 0 48 48" version="1.1" xmlns="http://www.w3.org/2000/svg" xmlns:xlink="http://www.w3.org/1999/xlink">
    <title>Back_next_btn</title>
    <g id="Page-1" stroke="none" stroke-width="1" fill="none" fill-rule="evenodd">
        <g id="Homepage_L_demo_3" transform="translate(-213.000000, -349.000000)">
            <g id="Banner" transform="translate(0.000000, 104.000000)">
                <g id="Group" transform="translate(213.000000, 245.000000)">
                    <g id="Back-btn" transform="translate(24.000000, 24.000000) scale(-1, 1) translate(-24.000000, -24.000000) ">
                        <circle id="Oval" stroke="#DBDBDC" stroke-width="2" fill="#FFFFFF" cx="24" cy="24" r="23"></circle>
                        <g id="next-2" transform="translate(12.000000, 15.200000)" fill="#0064D2" fill-rule="nonzero">
                            <path d="M24.7980675,8.53422753 C24.7980675,8.32732468 24.7128457,8.12969766 24.5710026,7.98089766 L16.8998795,0.232282597 C16.5968686,-0.0738202597 16.1063439,-0.0730472727 15.804106,0.232282597 C15.5010951,0.537612468 15.5010951,1.03354805 15.804106,1.33887792 L22.1531636,7.75151377 L0.774919481,7.75151377 C0.3472,7.75157818 0,8.10180571 0,8.53422753 C0,8.96664935 0.3472,9.3169413 0.774919481,9.3169413 L22.1523906,9.3169413 L15.804106,15.7295771 C15.5010951,16.034907 15.5018681,16.5308426 15.804106,16.8361725 C16.1071169,17.1415023 16.5976416,17.1415023 16.8998795,16.8361725 L24.5710026,9.0875574 C24.7158732,8.94107636 24.7957486,8.73958442 24.7980675,8.53422753 Z" id="Arrow_Forward"></path>
                        </g>
                    </g>
                </g>
            </g>
        </g>
    </g>
</svg>