<?xml version="1.0" encoding="UTF-8"?>
<svg width="39px" height="19px" viewBox="0 0 39 19" version="1.1" xmlns="http://www.w3.org/2000/svg" xmlns:xlink="http://www.w3.org/1999/xlink">
    <title>Path</title>
    <g id="Symbols" stroke="none" stroke-width="1" fill="none" fill-rule="evenodd">
        <g id="More_btn" transform="translate(-208.000000, -2.000000)" fill="#0064D2" fill-rule="nonzero">
            <g id="More" transform="translate(0.000000, 1.000000)">
                <path d="M246.553157,9.41539061 C246.5527,9.41493093 246.552319,9.41439464 246.551786,9.41393496 L238.591524,1.44618855 C237.995175,0.849297084 237.030611,0.85151886 236.437003,1.45139823 C235.843473,2.05120099 235.845758,3.02135072 236.442107,3.6183188 L241.786628,8.96774116 L209.523437,8.96774116 C208.682043,8.96774116 208,9.65373348 208,10.5 C208,11.3462667 208.682043,12.032259 209.523437,12.032259 L241.786552,12.032259 L236.442183,17.3816814 C235.845834,17.9786495 235.843549,18.9487992 236.43708,19.5486019 C237.030687,20.1485579 237.995327,20.1506265 238.5916,19.5538116 L246.551862,11.5860652 C246.552319,11.5856055 246.5527,11.5850692 246.553233,11.5846096 C247.149887,10.9856496 247.147983,10.0123587 246.553157,9.41539061 Z" id="Path"></path>
            </g>
        </g>
    </g>
</svg>