<?xml version="1.0" encoding="UTF-8"?>
<svg width="18px" height="12px" viewBox="0 0 18 12" version="1.1" xmlns="http://www.w3.org/2000/svg" xmlns:xlink="http://www.w3.org/1999/xlink">
    <title>icons/Read_more</title>
    <g id="Symbols" stroke="none" stroke-width="1" fill="none" fill-rule="evenodd">
        <g id="elements/Article" transform="translate(-92.000000, -460.000000)" fill="#3973E6" fill-rule="nonzero">
            <g id="Read-more" transform="translate(0.000000, 454.000000)">
                <g id="Group" transform="translate(91.000000, 6.454545)">
                    <g id="keyboard_backspace-24px" transform="translate(9.500000, 6.000000) scale(-1, 1) translate(-9.500000, -6.000000) ">
                        <path d="M17,5 L3.83,5 L6.71,2.12 C7.1,1.73 7.1,1.1 6.71,0.71 C6.32,0.32 5.69,0.32 5.3,0.71 L0.71,5.3 C0.32,5.69 0.32,6.32 0.71,6.71 L5.3,11.3 C5.69,11.69 6.32,11.69 6.71,11.3 C7.1,10.91 7.1,10.28 6.71,9.89 L3.83,7 L17,7 C17.55,7 18,6.55 18,6 C18,5.45 17.55,5 17,5 Z" id="Path"></path>
                    </g>
                </g>
            </g>
        </g>
    </g>
</svg>