<?xml version="1.0" encoding="UTF-8"?>
<svg width="104px" height="104px" viewBox="0 0 104 104" version="1.1" xmlns="http://www.w3.org/2000/svg" xmlns:xlink="http://www.w3.org/1999/xlink">
    <title>Services/Fundamental_software</title>
    <defs>
        <linearGradient x1="18%" y1="36.3726287%" x2="50%" y2="100%" id="linearGradient-1">
            <stop stop-color="#0064D2" offset="0%"></stop>
            <stop stop-color="#0064D2" offset="100%"></stop>
        </linearGradient>
    </defs>
    <g id="Services/Fundamental_software" stroke="none" stroke-width="1" fill="none" fill-rule="evenodd">
        <g id="Group" transform="translate(1.000000, -2.000000)">
            <g id="Group-2" stroke="#0064D2" stroke-width="3">
                <ellipse id="Oval" transform="translate(51.000000, 54.500000) rotate(-30.000000) translate(-51.000000, -54.500000) " cx="51" cy="54.5" rx="19.5" ry="49"></ellipse>
                <ellipse id="Oval-Copy" transform="translate(51.000000, 54.500000) rotate(30.000000) translate(-51.000000, -54.500000) " cx="51" cy="54.5" rx="19.5" ry="49"></ellipse>
                <ellipse id="Oval-Copy-2" transform="translate(51.000000, 54.500000) scale(-1, 1) rotate(90.000000) translate(-51.000000, -54.500000) " cx="51" cy="54.5" rx="19.5" ry="49"></ellipse>
            </g>
            <path d="M51,39 C55.5907733,39 59.1936465,39.9879965 61.8086199,41.9639896 C62.5589706,42.530968 63,43.4170142 63,44.3574879 L63,63.5566782 C63.0000038,64.53197 62.5259049,65.4463929 61.7288463,66.0084354 C58.9005284,68.0028118 55.3242463,69 51,69 C46.6757643,69 43.0994892,68.0028167 40.2711747,66.0084502 C39.4741024,65.4464178 39,64.5319902 39,63.556693 L39,44.3574949 C39.0000044,43.4170299 39.4410287,42.5309917 40.1913614,41.9640037 C42.8063363,39.9880012 46.4092158,39 51,39 Z M42.4108016,61.0982769 C42.1839368,61.0982769 42.0000266,61.2821872 42,61.5090519 L42,61.5090519 L42,62.9804273 C42,63.3154234 42.1677389,63.6281668 42.4468122,63.8134787 C44.6419184,65.2711596 47.492981,66 51,66 C54.5070172,66 57.3580787,65.2711603 59.5531845,63.8134809 C59.8322461,63.6281676 59.9999806,63.3154327 60,62.9804455 L60,62.9804455 L60,61.6062939 C59.9999971,61.5597986 59.9927601,61.5135865 59.9785458,61.4693172 C59.9028956,61.2337099 59.6505716,61.104039 59.4149643,61.1796892 L59.4149643,61.1796892 L59.2571091,61.231946 C57.6071777,61.7933873 55.359375,63 51,63 C46.5,63 44.25,61.7142857 42.5458363,61.1211064 L42.5458363,61.1211064 L42.4792771,61.1040245 Z M42.4108016,55.0982769 C42.1839368,55.0982769 42.0000266,55.2821872 42,55.5090519 L42,55.5090519 L42,56.9804273 C42,57.3154234 42.1677389,57.6281668 42.4468122,57.8134787 C44.6419184,59.2711596 47.492981,60 51,60 C54.5070172,60 57.3580787,59.2711603 59.5531845,57.8134809 C59.8322461,57.6281676 59.9999806,57.3154327 60,56.9804455 L60,56.9804455 L60,55.6062939 C59.9999971,55.5597986 59.9927601,55.5135865 59.9785458,55.4693172 C59.9028956,55.2337099 59.6505716,55.104039 59.4149643,55.1796892 L59.4149643,55.1796892 L59.2571091,55.231946 C57.6071777,55.7933873 55.359375,57 51,57 C46.5,57 44.25,55.7142857 42.5458363,55.1211064 L42.5458363,55.1211064 L42.4792771,55.1040245 Z M42.4108016,49.0982769 C42.1839368,49.0982769 42.0000266,49.2821872 42,49.5090519 L42,49.5090519 L42,50.9804273 C42,51.3154234 42.1677389,51.6281668 42.4468122,51.8134787 C44.6419184,53.2711596 47.492981,54 51,54 C54.5070172,54 57.3580787,53.2711603 59.5531845,51.8134809 C59.8322461,51.6281676 59.9999806,51.3154327 60,50.9804455 L60,50.9804455 L60,49.6062939 C59.9999971,49.5597986 59.9927601,49.5135865 59.9785458,49.4693172 C59.9028956,49.2337099 59.6505716,49.104039 59.4149643,49.1796892 L59.4149643,49.1796892 L59.2571091,49.231946 C57.6071777,49.7933873 55.359375,51 51,51 C46.5,51 44.25,49.7142857 42.5458363,49.1211064 L42.5458363,49.1211064 L42.4792771,49.1040245 Z M51,42 C47,42 42,43 42,45 C42,47 47,48 51,48 C55,48 60,47 60,45 C60,43 55,42 51,42 Z" id="Combined-Shape" fill="url(#linearGradient-1)"></path>
        </g>
    </g>
</svg>