<?xml version="1.0" encoding="UTF-8"?>
<svg width="104px" height="104px" viewBox="0 0 104 104" version="1.1" xmlns="http://www.w3.org/2000/svg" xmlns:xlink="http://www.w3.org/1999/xlink">
    <title>Services/Highway</title>
    <g id="Services/Highway" stroke="none" stroke-width="1" fill="none" fill-rule="evenodd">
        <g id="Group" transform="translate(18.000000, 10.000000)" stroke="#0064D2">
            <line x1="0.5" y1="85.5" x2="16.5" y2="0.5" id="Path-25" stroke-width="3"></line>
            <line x1="51.5" y1="85.5" x2="69.5" y2="0.5" id="Path-25-Copy-3" stroke-width="3" transform="translate(60.500000, 43.000000) scale(-1, 1) translate(-60.500000, -43.000000) "></line>
            <line x1="29.5" y1="85.4415584" x2="29.5" y2="0.558441558" id="Path-25-Copy" stroke-width="3" transform="translate(29.500000, 43.000000) scale(-1, 1) translate(-29.500000, -43.000000) "></line>
            <line x1="24" y1="85" x2="14.5" y2="0.558441558" id="Path-25-Copy-4" stroke-width="2" stroke-dasharray="8" transform="translate(19.000000, 42.500000) scale(-1, 1) translate(-19.000000, -42.500000) "></line>
            <line x1="44" y1="85" x2="53.5" y2="0.558220189" id="Path-25-Copy-5" stroke-width="2" stroke-dasharray="8" transform="translate(49.000000, 42.500000) scale(-1, 1) translate(-49.000000, -42.500000) "></line>
            <line x1="37.5" y1="85.4415584" x2="37.5" y2="0.558441558" id="Path-25-Copy-2" stroke-width="3" transform="translate(37.500000, 43.000000) scale(-1, 1) translate(-37.500000, -43.000000) "></line>
        </g>
        <path d="M94,46 L94,52 L90,52 L90,59 L85.901647,59 L84.0353137,52 L19.9646863,52 L18.098353,59 L14,59 L14,52 L10,52 L10,46 L94,46 Z" id="Combined-Shape" stroke="#0064D2" stroke-width="2" fill="#FFFFFF"></path>
    </g>
</svg>