<?xml version="1.0" encoding="UTF-8"?>
<svg width="86px" height="86px" viewBox="0 0 86 86" version="1.1" xmlns="http://www.w3.org/2000/svg" xmlns:xlink="http://www.w3.org/1999/xlink">
    <title>Icons/Test_Automation</title>
    <g id="Page-1" stroke="none" stroke-width="1" fill="none" fill-rule="evenodd" stroke-linejoin="round">
        <g id="Homepage_L" transform="translate(-931.000000, -2388.000000)" stroke-width="2.68">
            <g id="Best-technologies" transform="translate(0.000000, 1790.000000)">
                <g id="Content" transform="translate(184.000000, 277.000000)">
                    <g id="High-teches" transform="translate(635.000000, 0.000000)">
                        <g id="Base-tech-Copy-3" transform="translate(7.000000, 312.000000)">
                            <g id="Group" transform="translate(96.000000, 0.000000)">
                                <g id="iconfinder_Set17-01_3266203" transform="translate(9.000000, 9.000000)">
                                    <g id="XMLID_1080_" transform="translate(2.010000, 2.010000)">
                                        <g id="XMLID_3094_" stroke="#020202" stroke-linecap="round">
                                            <path d="M81.74,48.039 L81.74,33.701 L73.7,33.701 C72.829,29.748 71.288,26.063 69.211,22.713 L74.906,17.018 L64.722,6.901 L59.027,12.663 C55.744,10.519 51.992,8.978 48.039,8.174 L48.039,0 L33.701,0 L33.701,8.04 C29.748,8.911 26.063,10.452 22.713,12.529 L17.018,6.834 L6.901,17.018 L12.596,22.713 C10.452,25.996 8.911,29.748 8.107,33.701 L0,33.701 L0,48.106 L8.04,48.106 C8.911,52.059 10.452,55.744 12.529,59.094 L6.834,64.789 L17.018,74.973 L22.713,69.278 C25.996,71.422 29.748,72.963 33.701,73.767 L33.701,81.807 L48.106,81.807 L48.106,73.767 C52.059,72.896 55.744,71.355 59.094,69.278 L64.789,74.973 L74.973,64.789 L69.278,59.094 C71.422,55.811 72.963,52.059 73.767,48.106 L81.74,48.039 L81.74,48.039 Z" id="XMLID_3096_"></path>
                                            <circle id="XMLID_3095_" cx="40.87" cy="40.87" r="27.269"></circle>
                                        </g>
                                        <g id="art_board_16_1_" transform="translate(27.470000, 18.760000)" stroke="#000000">
                                            <g id="XMLID_4257_" transform="translate(4.690000, 0.000000)">
                                                <path d="M12.194,3.35 C12.194,3.283 12.194,3.216 12.194,3.149 C12.127,1.474 10.787,0.134 9.179,0.067 C7.236,-0.067 5.695,1.474 5.695,3.35 C5.695,3.35 5.695,3.35 5.695,3.35 C5.695,4.221 5.092,4.958 4.221,5.092 C1.675,5.36 0,5.896 0,6.499 C0,6.566 0,8.241 0.067,8.308 L17.822,8.308 C17.889,8.241 17.889,6.566 17.889,6.499 C17.889,5.896 16.214,5.36 13.735,5.092 C12.797,4.958 12.194,4.221 12.194,3.35 Z" id="XMLID_4258_"></path>
                                            </g>
                                            <polyline id="XMLID_4080_" stroke-linecap="round" points="27.001 18.693 27.001 7.37 24.187 7.37"></polyline>
                                            <polyline id="XMLID_3104_" stroke-linecap="round" points="0.134 36.046 0.134 40.401 27.001 40.401 27.001 30.217"></polyline>
                                            <polyline id="XMLID_3099_" stroke-linecap="round" points="3.015 7.37 0.134 7.37 0.134 12.663"></polyline>
                                        </g>
                                        <g id="XMLID_3097_" stroke="#020202" stroke-linecap="round">
                                            <path d="M81.74,48.039 L81.74,33.701 L73.7,33.701 C72.829,29.748 71.288,26.063 69.211,22.713 L74.906,17.018 L64.722,6.901 L59.027,12.663 C55.744,10.519 51.992,8.978 48.039,8.174 L48.039,0 L33.701,0 L33.701,8.04 C29.748,8.911 26.063,10.452 22.713,12.529 L17.018,6.834 L6.901,17.018 L12.596,22.713 C10.452,25.996 8.911,29.748 8.107,33.701 L0,33.701 L0,48.106 L8.04,48.106 C8.911,52.059 10.452,55.744 12.529,59.094 L6.834,64.789 L17.018,74.973 L22.713,69.278 C25.996,71.422 29.748,72.963 33.701,73.767 L33.701,81.807 L48.106,81.807 L48.106,73.767 C52.059,72.896 55.744,71.355 59.094,69.278 L64.789,74.973 L74.973,64.789 L69.278,59.094 C71.422,55.811 72.963,52.059 73.767,48.106 L81.74,48.039 L81.74,48.039 Z" id="XMLID_3100_"></path>
                                            <circle id="XMLID_3098_" cx="40.87" cy="40.87" r="27.269"></circle>
                                        </g>
                                        <g id="XMLID_3101_" transform="translate(19.430000, 34.840000)" stroke="#020202" stroke-linecap="round">
                                            <path d="M15.812,9.38 L15.812,6.7 L14.271,6.7 C14.137,5.963 13.802,5.226 13.4,4.623 L14.472,3.551 L12.529,1.608 L11.524,2.68 C10.921,2.278 10.184,2.01 9.447,1.809 L9.447,0.268 L6.7,0.268 L6.7,1.809 C5.963,1.943 5.226,2.278 4.623,2.68 L3.551,1.608 L1.608,3.551 L2.68,4.623 C2.278,5.226 2.01,5.963 1.809,6.7 L0.268,6.7 L0.268,9.38 L1.809,9.38 C1.943,10.117 2.278,10.854 2.68,11.457 L1.608,12.529 L3.551,14.472 L4.623,13.4 C5.226,13.802 5.963,14.07 6.7,14.271 L6.7,15.812 L9.38,15.812 L9.38,14.271 C10.117,14.137 10.854,13.802 11.457,13.4 L12.529,14.472 L14.472,12.529 L13.4,11.524 C13.802,10.921 14.07,10.184 14.271,9.447 L15.812,9.447 L15.812,9.38 Z" id="XMLID_3103_"></path>
                                        </g>
                                        <polyline id="XMLID_3102_" stroke="#000000" stroke-linecap="round" points="41.071 49.111 44.89 52.93 57.62 40.2"></polyline>
                                    </g>
                                </g>
                            </g>
                        </g>
                    </g>
                </g>
            </g>
        </g>
    </g>
</svg>