<?xml version="1.0" encoding="UTF-8"?>
<svg width="24px" height="24px" viewBox="0 0 24 24" version="1.1" xmlns="http://www.w3.org/2000/svg" xmlns:xlink="http://www.w3.org/1999/xlink">
    <title>8CDF71FD-C7E3-4E12-9A09-956BBA22D6A5</title>
    <defs>
        <rect id="path-1" x="0" y="0" width="1600" height="97"></rect>
        <filter x="-1.4%" y="-20.6%" width="102.8%" height="145.4%" filterUnits="objectBoundingBox" id="filter-2">
            <feOffset dx="0" dy="2" in="SourceAlpha" result="shadowOffsetOuter1"></feOffset>
            <feGaussianBlur stdDeviation="7" in="shadowOffsetOuter1" result="shadowBlurOuter1"></feGaussianBlur>
            <feColorMatrix values="0 0 0 0 0.668874547   0 0 0 0 0.668874547   0 0 0 0 0.668874547  0 0 0 0.37 0" type="matrix" in="shadowBlurOuter1"></feColorMatrix>
        </filter>
    </defs>
    <g id="V2-Copy" stroke="none" stroke-width="1" fill="none" fill-rule="evenodd">
        <g id="Homepage_L_v2.0-Copy-3" transform="translate(-894.000000, -63.000000)">
            <rect fill="#FFFFFF" x="0" y="0" width="1600" height="3991"></rect>
            <g id="Header">
                <g id="Rectangle">
                    <use fill="black" fill-opacity="1" filter="url(#filter-2)" xlink:href="#path-1"></use>
                    <use fill="#FFFFFF" fill-rule="evenodd" xlink:href="#path-1"></use>
                </g>
                <g id="Menu" transform="translate(131.000000, 0.000000)">
                    <g transform="translate(620.000000, 62.000000)" id="elements/Menu_item">
                        <g transform="translate(72.000000, 0.000000)">
                            <g id="chevron_right-24px" transform="translate(83.000000, 13.000000) rotate(90.000000) translate(-83.000000, -13.000000) translate(71.000000, 1.000000)">
                                <polygon id="Path" points="0 0 24 0 24 24 0 24"></polygon>
                                <path d="M9.29,6.71 C8.9,7.1 8.9,7.73 9.29,8.12 L13.17,12 L9.29,15.88 C8.9,16.27 8.9,16.9 9.29,17.29 C9.68,17.68 10.31,17.68 10.7,17.29 L15.29,12.7 C15.68,12.31 15.68,11.68 15.29,11.29 L10.7,6.7 C10.32,6.32 9.68,6.32 9.29,6.71 Z" id="Path" fill="#464647" fill-rule="nonzero"></path>
                            </g>
                        </g>
                    </g>
                </g>
            </g>
        </g>
    </g>
</svg>