<?xml version="1.0" encoding="UTF-8"?>
<svg width="24px" height="24px" viewBox="0 0 24 24" version="1.1" xmlns="http://www.w3.org/2000/svg" xmlns:xlink="http://www.w3.org/1999/xlink">
    <title>09BACA11-4881-4F03-9AEC-F77A3B80D41E</title>
    <g id="Page-1" stroke="none" stroke-width="1" fill="none" fill-rule="evenodd">
        <g id="Domain_business_detail_No_icon" transform="translate(-537.000000, -2623.000000)">
            <g id="Content" transform="translate(146.000000, 661.000000)">
                <g id="Info" transform="translate(343.000000, 0.000000)">
                    <g id="Infrastructure" transform="translate(0.000000, 1311.000000)">
                        <g id="List" transform="translate(0.000000, 429.000000)">
                            <g id="Items" transform="translate(48.000000, 48.000000)">
                                <g id="Elements/check_item-Copy-3" transform="translate(0.000000, 167.000000)">
                                    <g id="done-24px" transform="translate(0.000000, 7.000000)">
                                        <polygon id="Path" points="0 0 24 0 24 24 0 24"></polygon>
                                        <path d="M9,16.2 L5.5,12.7 C5.11,12.31 4.49,12.31 4.1,12.7 C3.71,13.09 3.71,13.71 4.1,14.1 L8.29,18.29 C8.68,18.68 9.31,18.68 9.7,18.29 L20.3,7.7 C20.69,7.31 20.69,6.69 20.3,6.3 C19.91,5.91 19.29,5.91 18.9,6.3 L9,16.2 Z" id="Path" fill="#29B836" fill-rule="nonzero"></path>
                                    </g>
                                </g>
                            </g>
                        </g>
                    </g>
                </g>
            </g>
        </g>
    </g>
</svg>