<?xml version="1.0" encoding="UTF-8"?>
<svg width="104px" height="104px" viewBox="0 0 104 104" version="1.1" xmlns="http://www.w3.org/2000/svg" xmlns:xlink="http://www.w3.org/1999/xlink">
    <title>Services/LSI</title>
    <g id="Services/LSI" stroke="none" stroke-width="1" fill="none" fill-rule="evenodd">
        <path d="M14,10 L91,10 C92.1045695,10 93,10.8954305 93,12 L93,93 C93,94.1045695 92.1045695,95 91,95 L79,95 C78.4477153,95 78,94.5522847 78,94 L78,91.5 C78,90.9477153 77.5522847,90.5 77,90.5 L68,90.5 C67.4477153,90.5 67,90.9477153 67,91.5 L67,94 C67,94.5522847 66.5522847,95 66,95 L14,95 C12.8954305,95 12,94.1045695 12,93 L12,12 C12,10.8954305 12.8954305,10 14,10 Z" id="Rectangle" stroke="#0064D2" stroke-width="3"></path>
        <rect id="Rectangle" stroke="#0064D2" stroke-width="3" x="22.5" y="21.5" width="60" height="62" rx="4"></rect>
        <g id="Group" transform="translate(25.000000, 4.000000)" fill="#0064D2">
            <path d="M1.5,0 C2.32842712,-1.52179594e-16 3,0.671572875 3,1.5 L3,6 L3,6 L0,6 L0,1.5 C-1.01453063e-16,0.671572875 0.671572875,1.52179594e-16 1.5,0 Z" id="Rectangle"></path>
            <path d="M8.5,0 C9.32842712,-1.52179594e-16 10,0.671572875 10,1.5 L10,6 L10,6 L7,6 L7,1.5 C7,0.671572875 7.67157288,1.52179594e-16 8.5,0 Z" id="Rectangle-Copy-2"></path>
            <path d="M15.5,0 C16.3284271,-1.52179594e-16 17,0.671572875 17,1.5 L17,6 L17,6 L14,6 L14,1.5 C14,0.671572875 14.6715729,1.52179594e-16 15.5,0 Z" id="Rectangle-Copy-3"></path>
            <path d="M22.5,0 C23.3284271,-1.52179594e-16 24,0.671572875 24,1.5 L24,6 L24,6 L21,6 L21,1.5 C21,0.671572875 21.6715729,1.52179594e-16 22.5,0 Z" id="Rectangle-Copy-4"></path>
            <path d="M29.5,0 C30.3284271,-1.52179594e-16 31,0.671572875 31,1.5 L31,6 L31,6 L28,6 L28,1.5 C28,0.671572875 28.6715729,1.52179594e-16 29.5,0 Z" id="Rectangle-Copy-5"></path>
            <path d="M36.5,0 C37.3284271,-1.52179594e-16 38,0.671572875 38,1.5 L38,6 L38,6 L35,6 L35,1.5 C35,0.671572875 35.6715729,1.52179594e-16 36.5,0 Z" id="Rectangle-Copy-6"></path>
            <path d="M43.5,0 C44.3284271,-1.52179594e-16 45,0.671572875 45,1.5 L45,6 L45,6 L42,6 L42,1.5 C42,0.671572875 42.6715729,1.52179594e-16 43.5,0 Z" id="Rectangle-Copy-7"></path>
            <path d="M50.5,0 C51.3284271,-1.52179594e-16 52,0.671572875 52,1.5 L52,6 L52,6 L49,6 L49,1.5 C49,0.671572875 49.6715729,1.52179594e-16 50.5,0 Z" id="Rectangle-Copy-8"></path>
        </g>
        <g id="Group-Copy" transform="translate(44.000000, 98.000000) scale(1, -1) translate(-44.000000, -98.000000) translate(25.000000, 95.000000)" fill="#0064D2">
            <path d="M1.5,0 C2.32842712,-1.52179594e-16 3,0.671572875 3,1.5 L3,6 L3,6 L0,6 L0,1.5 C-1.01453063e-16,0.671572875 0.671572875,1.52179594e-16 1.5,0 Z" id="Rectangle"></path>
            <path d="M8.5,0 C9.32842712,-1.52179594e-16 10,0.671572875 10,1.5 L10,6 L10,6 L7,6 L7,1.5 C7,0.671572875 7.67157288,1.52179594e-16 8.5,0 Z" id="Rectangle-Copy-2"></path>
            <path d="M15.5,0 C16.3284271,-1.52179594e-16 17,0.671572875 17,1.5 L17,6 L17,6 L14,6 L14,1.5 C14,0.671572875 14.6715729,1.52179594e-16 15.5,0 Z" id="Rectangle-Copy-3"></path>
            <path d="M22.5,0 C23.3284271,-1.52179594e-16 24,0.671572875 24,1.5 L24,6 L24,6 L21,6 L21,1.5 C21,0.671572875 21.6715729,1.52179594e-16 22.5,0 Z" id="Rectangle-Copy-4"></path>
            <path d="M29.5,0 C30.3284271,-1.52179594e-16 31,0.671572875 31,1.5 L31,6 L31,6 L28,6 L28,1.5 C28,0.671572875 28.6715729,1.52179594e-16 29.5,0 Z" id="Rectangle-Copy-5"></path>
            <path d="M36.5,0 C37.3284271,-1.52179594e-16 38,0.671572875 38,1.5 L38,6 L38,6 L35,6 L35,1.5 C35,0.671572875 35.6715729,1.52179594e-16 36.5,0 Z" id="Rectangle-Copy-6"></path>
        </g>
        <g id="Group-Copy-2" transform="translate(9.000000, 52.000000) rotate(-90.000000) translate(-9.000000, -52.000000) translate(-17.000000, 49.000000)" fill="#0064D2">
            <path d="M1.5,0 C2.32842712,-1.52179594e-16 3,0.671572875 3,1.5 L3,6 L3,6 L0,6 L0,1.5 C-1.01453063e-16,0.671572875 0.671572875,1.52179594e-16 1.5,0 Z" id="Rectangle"></path>
            <path d="M8.5,0 C9.32842712,-1.52179594e-16 10,0.671572875 10,1.5 L10,6 L10,6 L7,6 L7,1.5 C7,0.671572875 7.67157288,1.52179594e-16 8.5,0 Z" id="Rectangle-Copy-2"></path>
            <path d="M15.5,0 C16.3284271,-1.52179594e-16 17,0.671572875 17,1.5 L17,6 L17,6 L14,6 L14,1.5 C14,0.671572875 14.6715729,1.52179594e-16 15.5,0 Z" id="Rectangle-Copy-3"></path>
            <path d="M22.5,0 C23.3284271,-1.52179594e-16 24,0.671572875 24,1.5 L24,6 L24,6 L21,6 L21,1.5 C21,0.671572875 21.6715729,1.52179594e-16 22.5,0 Z" id="Rectangle-Copy-4"></path>
            <path d="M29.5,0 C30.3284271,-1.52179594e-16 31,0.671572875 31,1.5 L31,6 L31,6 L28,6 L28,1.5 C28,0.671572875 28.6715729,1.52179594e-16 29.5,0 Z" id="Rectangle-Copy-5"></path>
            <path d="M36.5,0 C37.3284271,-1.52179594e-16 38,0.671572875 38,1.5 L38,6 L38,6 L35,6 L35,1.5 C35,0.671572875 35.6715729,1.52179594e-16 36.5,0 Z" id="Rectangle-Copy-6"></path>
            <path d="M43.5,0 C44.3284271,-1.52179594e-16 45,0.671572875 45,1.5 L45,6 L45,6 L42,6 L42,1.5 C42,0.671572875 42.6715729,1.52179594e-16 43.5,0 Z" id="Rectangle-Copy-7"></path>
            <path d="M50.5,0 C51.3284271,-1.52179594e-16 52,0.671572875 52,1.5 L52,6 L52,6 L49,6 L49,1.5 C49,0.671572875 49.6715729,1.52179594e-16 50.5,0 Z" id="Rectangle-Copy-8"></path>
        </g>
        <g id="Group-Copy-3" transform="translate(96.000000, 52.000000) scale(-1, 1) rotate(-90.000000) translate(-96.000000, -52.000000) translate(70.000000, 49.000000)" fill="#0064D2">
            <path d="M1.5,0 C2.32842712,-1.52179594e-16 3,0.671572875 3,1.5 L3,6 L3,6 L0,6 L0,1.5 C-1.01453063e-16,0.671572875 0.671572875,1.52179594e-16 1.5,0 Z" id="Rectangle"></path>
            <path d="M8.5,0 C9.32842712,-1.52179594e-16 10,0.671572875 10,1.5 L10,6 L10,6 L7,6 L7,1.5 C7,0.671572875 7.67157288,1.52179594e-16 8.5,0 Z" id="Rectangle-Copy-2"></path>
            <path d="M15.5,0 C16.3284271,-1.52179594e-16 17,0.671572875 17,1.5 L17,6 L17,6 L14,6 L14,1.5 C14,0.671572875 14.6715729,1.52179594e-16 15.5,0 Z" id="Rectangle-Copy-3"></path>
            <path d="M22.5,0 C23.3284271,-1.52179594e-16 24,0.671572875 24,1.5 L24,6 L24,6 L21,6 L21,1.5 C21,0.671572875 21.6715729,1.52179594e-16 22.5,0 Z" id="Rectangle-Copy-4"></path>
            <path d="M29.5,0 C30.3284271,-1.52179594e-16 31,0.671572875 31,1.5 L31,6 L31,6 L28,6 L28,1.5 C28,0.671572875 28.6715729,1.52179594e-16 29.5,0 Z" id="Rectangle-Copy-5"></path>
            <path d="M36.5,0 C37.3284271,-1.52179594e-16 38,0.671572875 38,1.5 L38,6 L38,6 L35,6 L35,1.5 C35,0.671572875 35.6715729,1.52179594e-16 36.5,0 Z" id="Rectangle-Copy-6"></path>
            <path d="M43.5,0 C44.3284271,-1.52179594e-16 45,0.671572875 45,1.5 L45,6 L45,6 L42,6 L42,1.5 C42,0.671572875 42.6715729,1.52179594e-16 43.5,0 Z" id="Rectangle-Copy-7"></path>
            <path d="M50.5,0 C51.3284271,-1.52179594e-16 52,0.671572875 52,1.5 L52,6 L52,6 L49,6 L49,1.5 C49,0.671572875 49.6715729,1.52179594e-16 50.5,0 Z" id="Rectangle-Copy-8"></path>
        </g>
        <rect id="Rectangle" fill="#0064D2" transform="translate(32.914214, 73.414214) rotate(-45.000000) translate(-32.914214, -73.414214) " x="31.4142136" y="59.4142136" width="3" height="28"></rect>
        <rect id="Rectangle-Copy" fill="#0064D2" transform="translate(28.257359, 77.757359) rotate(-45.000000) translate(-28.257359, -77.757359) " x="26.7573593" y="69.7573593" width="3" height="16"></rect>
        <path d="M42.3691406,61 L42.3691406,58.1972656 L33.90625,58.1972656 L33.90625,41.0117188 L30.6386719,41.0117188 L30.6386719,61 L42.3691406,61 Z M54.09375,61.2734375 C56.3541667,61.2734375 58.1269531,60.7675781 59.4121094,59.7558594 C60.6972656,58.7441406 61.3398438,57.3496094 61.3398438,55.5722656 C61.3398438,54.6699219 61.1803385,53.8860677 60.8613281,53.2207031 C60.5423177,52.5553385 60.0410156,51.9583333 59.3574219,51.4296875 C58.6738281,50.9010417 57.5983073,50.3313802 56.1308594,49.7207031 C54.827474,49.1829427 53.9251302,48.75 53.4238281,48.421875 C52.922526,48.09375 52.5625,47.7451172 52.34375,47.3759766 C52.125,47.0068359 52.015625,46.5625 52.015625,46.0429688 C52.015625,45.2864583 52.2890625,44.6780599 52.8359375,44.2177734 C53.3828125,43.757487 54.1848958,43.5273438 55.2421875,43.5273438 C56.6367188,43.5273438 58.2226562,43.9010417 60,44.6484375 L60,44.6484375 L61.0390625,41.9824219 C59.1432292,41.1438802 57.2382812,40.7246094 55.3242188,40.7246094 C53.328125,40.7246094 51.7376302,41.203125 50.5527344,42.1601562 C49.3678385,43.1171875 48.7753906,44.4296875 48.7753906,46.0976562 C48.7753906,47.4283854 49.1490885,48.5677083 49.8964844,49.515625 C50.6438802,50.4635417 51.9290365,51.3066406 53.7519531,52.0449219 C55.5201823,52.7558594 56.686849,53.3710938 57.2519531,53.890625 C57.8170573,54.4101562 58.0996094,55.0436198 58.0996094,55.7910156 C58.0996094,56.6204427 57.7919922,57.28125 57.1767578,57.7734375 C56.5615234,58.265625 55.6067708,58.5117188 54.3125,58.5117188 C53.4283854,58.5117188 52.4736328,58.3886719 51.4482422,58.1425781 C50.4228516,57.8964844 49.4544271,57.5592448 48.5429688,57.1308594 L48.5429688,57.1308594 L48.5429688,60.2207031 C49.9830729,60.922526 51.8333333,61.2734375 54.09375,61.2734375 Z M72.4765625,61 L72.4765625,41.0117188 L69.2089844,41.0117188 L69.2089844,61 L72.4765625,61 Z" id="LSI" fill="#0064D2" fill-rule="nonzero"></path>
    </g>
</svg>