<?xml version="1.0" encoding="UTF-8"?>
<svg width="86px" height="86px" viewBox="0 0 86 86" version="1.1" xmlns="http://www.w3.org/2000/svg" xmlns:xlink="http://www.w3.org/1999/xlink">
    <title>Icons/Cloud_Computing</title>
    <g id="Page-1" stroke="none" stroke-width="1" fill="none" fill-rule="evenodd">
        <g id="Homepage_L" transform="translate(-924.000000, -2076.000000)" fill="#000000" fill-rule="nonzero">
            <g id="Best-technologies" transform="translate(0.000000, 1790.000000)">
                <g id="Content" transform="translate(184.000000, 277.000000)">
                    <g id="High-teches" transform="translate(635.000000, 0.000000)">
                        <g id="Group" transform="translate(96.000000, 0.000000)">
                            <g id="iconfinder_digital-brain-ai-machine-learning-artificial-intelligence_4094574" transform="translate(9.000000, 9.000000)">
                                <path d="M78.853308,32.3761333 C79.7781403,30.8324333 80.2734839,29.0651333 80.2734839,27.2333333 C80.2734839,22.1751 76.5154578,17.9783 71.6464875,17.2960333 C71.6708252,17.0251333 71.6837099,16.7542333 71.6837099,16.4833333 C71.6837099,11.0710667 66.9922616,6.70083333 61.5492081,7.20536667 C60.882069,3.12466667 57.3344923,0 53.0725327,0 C48.3352723,0 44.4827586,3.8571 44.4827586,8.6 L44.4827586,77.4 C44.4827586,82.1429 48.3352723,86 53.0725327,86 C57.3344923,86 60.882069,82.8753333 61.5492081,78.7946333 C66.9879667,79.3034667 71.6837099,74.9289333 71.6837099,69.5166667 C71.6837099,69.2457667 71.6708252,68.9748667 71.6464875,68.7039667 C76.5154578,68.0217 80.2734839,63.8249 80.2734839,58.7666667 C80.2734839,56.9348667 79.7781403,55.1675667 78.853308,53.6238667 C83.098088,51.8995667 86,47.7271333 86,43 C86,38.2728667 83.098088,34.1004333 78.853308,32.3761333 Z M76.1962045,51.4380333 C75.6836813,51.5383667 75.264214,51.9110333 75.1053032,52.4084 C74.9463924,52.9072 75.0723757,53.4533 75.4331463,53.8331333 C76.7087277,55.1733 77.4102259,56.9262667 77.4102259,58.7666667 C77.4102259,62.7155 74.2033769,65.9290333 70.1776361,65.9290333 C70.1561617,65.9290333 70.0115672,65.9204333 69.9915244,65.919 C69.5219501,65.9003667 69.0967562,66.1067667 68.8147253,66.4694 C68.5326944,66.8306 68.4410702,67.3050333 68.5670535,67.7450667 C68.7345541,68.3341667 68.8204518,68.9304333 68.8204518,69.5166667 C68.8204518,73.0727667 65.9299929,75.9666667 62.3781213,75.9666667 C61.7868585,75.9666667 61.1870059,75.8792333 60.5943115,75.7101 C60.1505065,75.5796667 59.6723424,75.6771333 59.3115719,75.9623667 C58.9493698,76.2490333 58.7475101,76.6919333 58.7689845,77.1534667 C58.7704162,77.1979 58.7933222,77.3555667 58.7990488,77.4 C58.7990488,80.5619333 56.2307063,83.1333333 53.0725327,83.1333333 C49.9143591,83.1333333 47.3460166,80.5619333 47.3460166,77.4 L47.3460166,48.7333333 L53.0725327,48.7333333 L53.0725327,64.7637333 C51.4104114,65.3571333 50.2092747,66.9338 50.2092747,68.8 C50.2092747,71.1707333 52.1362473,73.1 54.5041617,73.1 C56.8720761,73.1 58.7990488,71.1707333 58.7990488,68.8 C58.7990488,66.9338 57.597912,65.3571333 55.9357907,64.7637333 L55.9357907,48.7333333 L67.3888228,48.7333333 L67.3888228,54.7304 C65.7267015,55.3238 64.5255648,56.9004667 64.5255648,58.7666667 C64.5255648,61.1374 66.4525375,63.0666667 68.8204518,63.0666667 C71.1883662,63.0666667 73.1153389,61.1374 73.1153389,58.7666667 C73.1153389,56.9004667 71.9142021,55.3238 70.2520809,54.7304 L70.2520809,47.3 C70.2520809,46.5088 69.6107111,45.8666667 68.8204518,45.8666667 L47.3460166,45.8666667 L47.3460166,38.7 L64.7889845,38.7 C65.381679,40.3641 66.9564709,41.5666667 68.8204518,41.5666667 C71.1883662,41.5666667 73.1153389,39.6374 73.1153389,37.2666667 C73.1153389,34.8959333 71.1883662,32.9666667 68.8204518,32.9666667 C66.9564709,32.9666667 65.381679,34.1692333 64.7889845,35.8333333 L47.3460166,35.8333333 L47.3460166,28.6666667 L60.2306778,28.6666667 C61.020937,28.6666667 61.6623068,28.0245333 61.6623068,27.2333333 L61.6623068,21.2362667 C63.3244281,20.6428667 64.5255648,19.0662 64.5255648,17.2 C64.5255648,14.8292667 62.5985922,12.9 60.2306778,12.9 C57.8627634,12.9 55.9357907,14.8292667 55.9357907,17.2 C55.9357907,19.0662 57.1369275,20.6428667 58.7990488,21.2362667 L58.7990488,25.8 L47.3460166,25.8 L47.3460166,8.6 C47.3460166,5.43806667 49.9143591,2.86666667 53.0725327,2.86666667 C56.2307063,2.86666667 58.7990488,5.43806667 58.7976171,8.5699 C58.7918906,8.61433333 58.7718478,8.80066667 58.7689845,8.84653333 C58.7475101,9.30806667 58.9493698,9.75096667 59.3115719,10.0376333 C59.6723424,10.3228667 60.1505065,10.4189 60.5943115,10.2899 C61.1870059,10.1207667 61.7868585,10.0333333 62.3781213,10.0333333 C65.9299929,10.0333333 68.8204518,12.9272333 68.8204518,16.4833333 C68.8204518,17.0695667 68.7345541,17.6658333 68.5670535,18.2549333 C68.4410702,18.6949667 68.534126,19.1694 68.8147253,19.5306 C69.0953246,19.8918 69.5219501,20.0896 69.9915244,20.081 C70.0087039,20.081 70.2349013,20.0681 70.2520809,20.0666667 C74.199082,20.0666667 77.4102259,23.2816333 77.4102259,27.2333333 C77.4102259,29.0737333 76.7087277,30.8267 75.4331463,32.1668667 C75.0723757,32.5467 74.9463924,33.0928 75.1053032,33.5916 C75.264214,34.0904 75.6822497,34.4616333 76.1962045,34.5619667 C80.2176504,35.346 83.136742,38.8949333 83.136742,43 C83.136742,47.1065 80.2176504,50.654 76.1962045,51.4380333 Z M55.9357907,68.8 C55.9357907,69.5897667 55.2929893,70.2333333 54.5041617,70.2333333 C53.7153341,70.2333333 53.0725327,69.5897667 53.0725327,68.8 C53.0725327,68.0102333 53.7153341,67.3666667 54.5041617,67.3666667 C55.2929893,67.3666667 55.9357907,68.0102333 55.9357907,68.8 Z M70.2520809,58.7666667 C70.2520809,59.5564333 69.6092794,60.2 68.8204518,60.2 C68.0316243,60.2 67.3888228,59.5564333 67.3888228,58.7666667 C67.3888228,57.9769 68.0316243,57.3333333 68.8204518,57.3333333 C69.6092794,57.3333333 70.2520809,57.9769 70.2520809,58.7666667 Z M67.3888228,37.2666667 C67.3888228,36.4769 68.0316243,35.8333333 68.8204518,35.8333333 C69.6092794,35.8333333 70.2520809,36.4769 70.2520809,37.2666667 C70.2520809,38.0564333 69.6092794,38.7 68.8204518,38.7 C68.0316243,38.7 67.3888228,38.0564333 67.3888228,37.2666667 Z M58.7990488,17.2 C58.7990488,16.4102333 59.4418502,15.7666667 60.2306778,15.7666667 C61.0195054,15.7666667 61.6623068,16.4102333 61.6623068,17.2 C61.6623068,17.9897667 61.0195054,18.6333333 60.2306778,18.6333333 C59.4418502,18.6333333 58.7990488,17.9897667 58.7990488,17.2 Z" id="Shape"></path>
                                <path d="M7.14669203,53.6238667 C6.22185969,55.1675667 5.72651605,56.9348667 5.72651605,58.7666667 C5.72651605,63.8249 9.48454221,68.0217 14.3535125,68.7039667 C14.3291748,68.9748667 14.3162901,69.2457667 14.3162901,69.5166667 C14.3162901,74.9303667 19.0306445,79.2862667 24.4507919,78.7960667 C25.117931,82.8753333 28.6655077,86 32.9274673,86 C37.6647277,86 41.5172414,82.1429 41.5172414,77.4 L41.5172414,8.6 C41.5172414,3.8571 37.6647277,0 32.9274673,0 C28.6655077,0 25.117931,3.12466667 24.4507919,7.20536667 C19.024918,6.69653333 14.3162901,11.0710667 14.3162901,16.4833333 C14.3162901,16.7542333 14.3291748,17.0251333 14.3535125,17.2960333 C9.48454221,17.9783 5.72651605,22.1751 5.72651605,27.2333333 C5.72651605,29.0651333 6.22185969,30.8324333 7.14669203,32.3761333 C2.90191201,34.1004333 0,38.2728667 0,43 C0,47.7271333 2.90191201,51.8995667 7.14669203,53.6238667 Z M27.2009512,60.2 C27.9897788,60.2 28.6325803,60.8435667 28.6325803,61.6333333 C28.6325803,62.4231 27.9897788,63.0666667 27.2009512,63.0666667 C26.4121237,63.0666667 25.7693222,62.4231 25.7693222,61.6333333 C25.7693222,60.8435667 26.4121237,60.2 27.2009512,60.2 Z M28.6325803,65.6696 C30.2947015,65.0762 31.4958383,63.4995333 31.4958383,61.6333333 C31.4958383,59.7671333 30.2947015,58.1904667 28.6325803,57.5970667 L28.6325803,48.7333333 L38.6539834,48.7333333 L38.6539834,68.8 L28.6325803,68.8 L28.6325803,65.6696 Z M9.80379548,34.5619667 C10.3177503,34.4616333 10.735786,34.0889667 10.8946968,33.5916 C11.0536076,33.0928 10.9276243,32.5467 10.5668537,32.1668667 C9.29127229,30.8267 8.58977408,29.0737333 8.58977408,27.2333333 C8.58977408,23.2845 11.7966231,20.0709667 15.8223639,20.0709667 C15.8424067,20.0709667 15.9884328,20.0795667 16.0084756,20.081 C16.4522806,20.0896 16.9032438,19.8918 17.1852747,19.5306 C17.4673056,19.1694 17.5589298,18.6949667 17.4329465,18.2549333 C17.2654459,17.6658333 17.1795482,17.0695667 17.1795482,16.4833333 C17.1795482,12.9272333 20.0700071,10.0333333 23.6218787,10.0333333 C24.2131415,10.0333333 24.8129941,10.1207667 25.4056885,10.2899 C25.8480618,10.4160333 26.3262259,10.3228667 26.6884281,10.0376333 C27.0506302,9.75096667 27.2524899,9.30806667 27.2310155,8.84653333 C27.2295838,8.8021 27.2066778,8.64443333 27.2009512,8.6 C27.2009512,5.43806667 29.7692937,2.86666667 32.9274673,2.86666667 C36.0856409,2.86666667 38.6539834,5.43806667 38.6539834,8.6 L38.6539834,25.8 L31.4958383,25.8 L31.4958383,21.2362667 C33.1579596,20.6428667 34.3590963,19.0662 34.3590963,17.2 C34.3590963,14.8292667 32.4321237,12.9 30.0642093,12.9 C27.6962949,12.9 25.7693222,14.8292667 25.7693222,17.2 C25.7693222,19.0662 26.970459,20.6428667 28.6325803,21.2362667 L28.6325803,25.8 L21.2110155,25.8 C20.618321,24.1359 19.0435291,22.9333333 17.1795482,22.9333333 C14.8116338,22.9333333 12.8846611,24.8626 12.8846611,27.2333333 C12.8846611,29.6040667 14.8116338,31.5333333 17.1795482,31.5333333 C19.0435291,31.5333333 20.618321,30.3307667 21.2110155,28.6666667 L30.0642093,28.6666667 L38.6539834,28.6666667 L38.6539834,35.8333333 L18.6111772,35.8333333 C17.820918,35.8333333 17.1795482,36.4754667 17.1795482,37.2666667 L17.1795482,46.1304 C15.5174269,46.7238 14.3162901,48.3004667 14.3162901,50.1666667 C14.3162901,52.5374 16.2432628,54.4666667 18.6111772,54.4666667 C20.9790916,54.4666667 22.9060642,52.5374 22.9060642,50.1666667 C22.9060642,48.3004667 21.7049275,46.7238 20.0428062,46.1304 L20.0428062,38.7 L38.6539834,38.7 L38.6539834,45.8666667 L27.2009512,45.8666667 C26.410692,45.8666667 25.7693222,46.5088 25.7693222,47.3 L25.7693222,57.5970667 C24.107201,58.1904667 22.9060642,59.7671333 22.9060642,61.6333333 C22.9060642,63.4995333 24.107201,65.0762 25.7693222,65.6696 L25.7693222,70.2333333 C25.7693222,71.0245333 26.410692,71.6666667 27.2009512,71.6666667 L38.6539834,71.6666667 L38.6539834,77.4 C38.6539834,80.5619333 36.0856409,83.1333333 32.9274673,83.1333333 C29.7692937,83.1333333 27.2009512,80.5619333 27.2023829,77.4301 C27.2081094,77.3856667 27.2281522,77.1993333 27.2310155,77.1534667 C27.2524899,76.6919333 27.0506302,76.2490333 26.6869964,75.9623667 C26.4321665,75.7602667 26.1186397,75.6542 25.8008181,75.6542 C25.6676766,75.6542 25.5345351,75.6728333 25.4042568,75.7101 C24.8144257,75.8806667 24.2145731,75.9666667 23.6218787,75.9666667 C20.0700071,75.9666667 17.1795482,73.0727667 17.1795482,69.5166667 C17.1795482,68.9304333 17.2654459,68.3341667 17.4329465,67.7450667 C17.5589298,67.3050333 17.465874,66.8306 17.1852747,66.4694 C16.9032438,66.1082 16.4522806,65.9018 16.0084756,65.919 C15.9912961,65.919 15.7650987,65.9319 15.7479191,65.9333333 C11.800918,65.9333333 8.58977408,62.7183667 8.58977408,58.7666667 C8.58977408,56.9262667 9.29127229,55.1733 10.5668537,53.8331333 C10.9276243,53.4533 11.0536076,52.9072 10.8946968,52.4084 C10.735786,51.9096 10.3177503,51.5383667 9.80379548,51.4380333 C5.78234958,50.654 2.86325803,47.1050667 2.86325803,43 C2.86325803,38.8949333 5.78234958,35.346 9.80379548,34.5619667 Z M28.6325803,17.2 C28.6325803,16.4102333 29.2753817,15.7666667 30.0642093,15.7666667 C30.8530369,15.7666667 31.4958383,16.4102333 31.4958383,17.2 C31.4958383,17.9897667 30.8530369,18.6333333 30.0642093,18.6333333 C29.2753817,18.6333333 28.6325803,17.9897667 28.6325803,17.2 Z M18.6111772,27.2333333 C18.6111772,28.0231 17.9683757,28.6666667 17.1795482,28.6666667 C16.3907206,28.6666667 15.7479191,28.0231 15.7479191,27.2333333 C15.7479191,26.4435667 16.3907206,25.8 17.1795482,25.8 C17.9683757,25.8 18.6111772,26.4435667 18.6111772,27.2333333 Z M20.0428062,50.1666667 C20.0428062,50.9564333 19.4000048,51.6 18.6111772,51.6 C17.8223496,51.6 17.1795482,50.9564333 17.1795482,50.1666667 C17.1795482,49.3769 17.8223496,48.7333333 18.6111772,48.7333333 C19.4000048,48.7333333 20.0428062,49.3769 20.0428062,50.1666667 Z" id="Shape"></path>
                                <rect id="Rectangle" x="65.2413793" y="27" width="1.97701149" height="2"></rect>
                                <rect id="Rectangle" x="4.94252874" y="43" width="1.97701149" height="2"></rect>
                                <rect id="Rectangle" x="14.8275862" y="58" width="1.97701149" height="2"></rect>
                                <rect id="Rectangle" x="77.1034483" y="43" width="1.97701149" height="2"></rect>
                            </g>
                        </g>
                    </g>
                </g>
            </g>
        </g>
    </g>
</svg>