<?xml version="1.0" encoding="UTF-8"?>
<svg width="83px" height="91px" viewBox="0 0 83 91" version="1.1" xmlns="http://www.w3.org/2000/svg" xmlns:xlink="http://www.w3.org/1999/xlink">
    <title>Icons/Open_source_software</title>
    <g id="Page-1" stroke="none" stroke-width="1" fill="none" fill-rule="evenodd">
        <g id="Homepage_L" transform="translate(-1260.000000, -2071.000000)">
            <g id="Best-technologies" transform="translate(0.000000, 1790.000000)">
                <g id="Content" transform="translate(184.000000, 277.000000)">
                    <g id="High-teches" transform="translate(635.000000, 0.000000)">
                        <g id="Base-tech" transform="translate(333.000000, 0.000000)">
                            <g id="Group" transform="translate(96.000000, 0.000000)">
                                <g id="Group-4" transform="translate(20.000000, 27.000000)" fill="#030303">
                                    <path d="M0.0866330786,9.53498396 L34.9429506,9.36160599 C35.7100676,9.35779029 36.335032,9.97656825 36.3388477,10.7436852 C36.3388763,10.7494323 36.3388692,10.7551795 36.3388265,10.7609265 C36.3330279,11.5404211 35.7015342,12.1703602 34.9220278,12.1742376 L0.0657102253,12.3476155 C-0.701406766,12.3514312 -1.32637119,11.7326533 -1.33018689,10.9655363 C-1.33021548,10.9597892 -1.3302084,10.954042 -1.33016564,10.948295 C-1.32436707,10.1688005 -0.692873368,9.53886129 0.0866330786,9.53498396 Z" id="Rectangle" transform="translate(17.504330, 10.854611) rotate(-27.000000) translate(-17.504330, -10.854611) "></path>
                                    <path d="M0.0866330786,9.53498396 L34.9429506,9.36160599 C35.7100676,9.35779029 36.335032,9.97656825 36.3388477,10.7436852 C36.3388763,10.7494323 36.3388692,10.7551795 36.3388265,10.7609265 C36.3330279,11.5404211 35.7015342,12.1703602 34.9220278,12.1742376 L0.0657102253,12.3476155 C-0.701406766,12.3514312 -1.32637119,11.7326533 -1.33018689,10.9655363 C-1.33021548,10.9597892 -1.3302084,10.954042 -1.33016564,10.948295 C-1.32436707,10.1688005 -0.692873368,9.53886129 0.0866330786,9.53498396 Z" id="Rectangle-Copy-9" transform="translate(17.504330, 10.854611) rotate(-27.000000) translate(-17.504330, -10.854611) "></path>
                                    <path d="M0.334687196,25.7073978 L35.1910047,25.5340198 C35.9581217,25.5302041 36.5830861,26.148982 36.5869018,26.916099 C36.5869304,26.9218461 36.5869234,26.9275933 36.5868806,26.9333403 C36.581082,27.7128349 35.9495883,28.342774 35.1700819,28.3466513 L0.313764343,28.5200293 C-0.453352649,28.523845 -1.07831708,27.9050671 -1.08213277,27.1379501 C-1.08216136,27.132203 -1.08215428,27.1264558 -1.08211153,27.1207088 C-1.07631295,26.3412142 -0.444819251,25.7112751 0.334687196,25.7073978 Z" id="Rectangle-Copy" transform="translate(17.752385, 27.027025) scale(1, -1) rotate(-27.000000) translate(-17.752385, -27.027025) "></path>
                                    <path d="M0.220233694,56.3637313 L35.0765512,56.1903533 C35.8436682,56.1865376 36.4686326,56.8053156 36.4724483,57.5724326 C36.4724769,57.5781797 36.4724698,57.5839269 36.4724271,57.5896739 C36.4666285,58.3691684 35.8351348,58.9991076 35.0556284,59.0029849 L0.199310841,59.1763629 C-0.567806151,59.1801786 -1.19277058,58.5614006 -1.19658628,57.7942836 C-1.19661486,57.7885365 -1.19660778,57.7827893 -1.19656503,57.7770423 C-1.19076646,56.9975478 -0.559272753,56.3676086 0.220233694,56.3637313 Z" id="Rectangle-Copy-5" transform="translate(17.637931, 57.683358) scale(1, -1) rotate(-27.000000) translate(-17.637931, -57.683358) "></path>
                                    <path d="M-13,32.5 L17,32.5 C17.8284271,32.5 18.5,33.1715729 18.5,34 C18.5,34.8284271 17.8284271,35.5 17,35.5 L-13,35.5 C-13.8284271,35.5 -14.5,34.8284271 -14.5,34 C-14.5,33.1715729 -13.8284271,32.5 -13,32.5 Z" id="Rectangle-Copy-4" transform="translate(2.000000, 34.000000) scale(1, -1) rotate(90.000000) translate(-2.000000, -34.000000) "></path>
                                    <path d="M48.5,33 L79.5,33 C80.3284271,33 81,33.6715729 81,34.5 C81,35.3284271 80.3284271,36 79.5,36 L48.5,36 C47.6715729,36 47,35.3284271 47,34.5 C47,33.6715729 47.6715729,33 48.5,33 Z" id="Rectangle-Copy-7" transform="translate(64.000000, 34.500000) scale(1, -1) rotate(90.000000) translate(-64.000000, -34.500000) "></path>
                                    <path d="M31.0588251,9.53498396 L65.9151427,9.36160599 C66.6822597,9.35779029 67.3072241,9.97656825 67.3110398,10.7436852 C67.3110684,10.7494323 67.3110613,10.7551795 67.3110185,10.7609265 C67.30522,11.5404211 66.6737263,12.1703602 65.8942198,12.1742376 L31.0379023,12.3476155 C30.2707853,12.3514312 29.6458209,11.7326533 29.6420052,10.9655363 C29.6419766,10.9597892 29.6419837,10.954042 29.6420264,10.948295 C29.647825,10.1688005 30.2793187,9.53886129 31.0588251,9.53498396 Z" id="Rectangle-Copy-3" transform="translate(48.476522, 10.854611) scale(-1, 1) rotate(-27.000000) translate(-48.476522, -10.854611) "></path>
                                    <path d="M31.0588251,25.7073978 L65.9151427,25.5340198 C66.6822597,25.5302041 67.3072241,26.148982 67.3110398,26.916099 C67.3110684,26.9218461 67.3110613,26.9275933 67.3110185,26.9333403 C67.30522,27.7128349 66.6737263,28.342774 65.8942198,28.3466513 L31.0379023,28.5200293 C30.2707853,28.523845 29.6458209,27.9050671 29.6420052,27.1379501 C29.6419766,27.132203 29.6419837,27.1264558 29.6420264,27.1207088 C29.647825,26.3412142 30.2793187,25.7112751 31.0588251,25.7073978 Z" id="Rectangle-Copy-2" transform="translate(48.476522, 27.027025) scale(-1, -1) rotate(-27.000000) translate(-48.476522, -27.027025) "></path>
                                    <g id="Group-3" transform="translate(45.183046, 41.015261) rotate(-8.000000) translate(-45.183046, -41.015261) translate(38.183046, 34.515261)">
                                        <path d="M0.916488603,6.7144927 L9.29527147,6.6614693 C9.8214744,6.65813934 10.2507456,7.08201163 10.2540756,7.60821456 C10.2541062,7.61304762 10.2541,7.61788084 10.254057,7.62271381 C10.2492865,8.15934031 9.81470905,8.59280611 9.27807209,8.59620211 L0.899289223,8.64922551 C0.373086288,8.65255547 -0.0561849459,8.22868318 -0.0595149126,7.70248025 C-0.0595454976,7.69764719 -0.0595393078,7.69281397 -0.0594963437,7.687981 C-0.0547258435,7.15135449 0.379851638,6.7178887 0.916488603,6.7144927 Z" id="Rectangle-Copy-15" transform="translate(5.097280, 7.655347) scale(-1, -1) rotate(-43.000000) translate(-5.097280, -7.655347) "></path>
                                        <path d="M7.93696807,5.10170971 L15.9543343,5.08322691 C16.49744,5.08197486 16.9387292,5.5212341 16.9399813,6.06433987 C16.9399852,6.06603589 16.9399847,6.06773191 16.9399799,6.06942793 C16.9384114,6.61617561 16.4954114,7.05892608 15.948663,7.06018653 L7.93129676,7.07866933 C7.38819099,7.07992137 6.94690178,6.64066214 6.94564973,6.09755636 C6.94564582,6.09586035 6.9456463,6.09416432 6.94565117,6.09246831 C6.94721962,5.54572063 7.39021959,5.10297015 7.93696807,5.10170971 Z" id="Rectangle-Copy-21" transform="translate(11.942816, 6.080948) scale(-1, -1) rotate(-81.000000) translate(-11.942816, -6.080948) "></path>
                                        <path d="M2.63951814,10.1968589 L7.65323932,10.1829597 C8.19709709,10.181452 8.63920315,10.6211136 8.64071084,11.1649714 C8.64071597,11.1668208 8.64071589,11.1686701 8.6407106,11.1705195 C8.63914281,11.7183501 8.19540193,12.1620512 7.64757119,12.1635699 L2.63385,12.177469 C2.08999223,12.1789767 1.64788618,11.7393151 1.64637848,11.1954574 C1.64637336,11.193608 1.64637344,11.1917587 1.64637873,11.1899093 C1.64794652,10.6420787 2.0916874,10.1983776 2.63951814,10.1968589 Z" id="Rectangle-Copy-20" transform="translate(5.143545, 11.180214) scale(-1, 1) rotate(-11.000000) translate(-5.143545, -11.180214) "></path>
                                    </g>
                                    <g id="Group-2" transform="translate(55.689515, 38.410737) rotate(-6.000000) translate(-55.689515, -38.410737) translate(51.189515, 33.410737)">
                                        <path d="M2.09396187,1.24100526 L7.10650197,1.22830954 C7.65108608,1.22693022 8.09367688,1.6672847 8.09505619,2.21186881 C8.09506048,2.21355952 8.09506041,2.21525025 8.095056,2.21694097 C8.09362455,2.76515623 7.64954142,3.20920459 7.10132605,3.21059311 L2.08878594,3.22328883 C1.54420184,3.22466814 1.10161104,2.78431366 1.10023172,2.23972956 C1.10022744,2.23803884 1.10022751,2.23634811 1.10023192,2.2346574 C1.10166336,1.68644214 1.5457465,1.24239377 2.09396187,1.24100526 Z" id="Rectangle-Copy-22" transform="translate(4.597644, 2.225799) scale(1, -1) rotate(-10.000000) translate(-4.597644, -2.225799) "></path>
                                        <path d="M1.09338866,4.5410943 L8.31395148,4.49555917 C8.84225332,4.49222753 9.2732274,4.91779996 9.27655904,5.4461018 C9.2765894,5.45091556 9.27658342,5.45572948 9.2765411,5.46054314 C9.27180566,5.99922659 8.83557144,6.4343784 8.29687789,6.43777558 L1.07631507,6.48331071 C0.548013236,6.48664235 0.117039152,6.06106991 0.113707514,5.53276808 C0.113677157,5.52795432 0.113683137,5.5231404 0.113725453,5.51832673 C0.118460898,4.97964329 0.554695111,4.54449147 1.09338866,4.5410943 Z" id="Rectangle-Copy-23" transform="translate(4.695133, 5.489435) rotate(-47.000000) translate(-4.695133, -5.489435) "></path>
                                    </g>
                                    <path d="M32.1487595,56.6240773 L65.8582594,56.4560857 C66.6268345,56.4522555 67.2529926,57.0722037 67.2568228,57.8407787 C67.2568515,57.8465346 67.2568445,57.8522906 67.2568018,57.8580463 C67.2510032,58.6390179 66.6183199,59.2701585 65.8373366,59.2740506 L32.1278366,59.4420421 C31.3592616,59.4458723 30.7331034,58.8259241 30.7292732,58.0573491 C30.7292445,58.0515932 30.7292515,58.0458372 30.7292943,58.0400815 C30.7350928,57.2591099 31.3677761,56.6279693 32.1487595,56.6240773 Z" id="Rectangle-Copy-6" transform="translate(48.993048, 57.949064) scale(-1, -1) rotate(-27.000000) translate(-48.993048, -57.949064) "></path>
                                </g>
                                <g transform="translate(12.000000, 19.000000)">
                                    <rect id="Rectangle-Copy-19" fill="#030303" x="7" y="3" width="6" height="3" rx="1.5"></rect>
                                    <circle id="Oval-Copy-2" stroke="#000000" stroke-width="2" cx="4.5" cy="4.5" r="3.5"></circle>
                                    <rect id="Rectangle-Copy-17" fill="#030303" x="23" y="3" width="5.5" height="3" rx="1.5"></rect>
                                    <rect id="Rectangle-Copy-18" fill="#030303" x="15" y="3" width="5.5" height="3" rx="1.5"></rect>
                                    <path d="M12,18.5 L42,18.5 C42.8284271,18.5 43.5,19.1715729 43.5,20 C43.5,20.8284271 42.8284271,21.5 42,21.5 L12,21.5 C11.1715729,21.5 10.5,20.8284271 10.5,20 C10.5,19.1715729 11.1715729,18.5 12,18.5 Z" id="Rectangle-Copy-16" fill="#030303" transform="translate(27.000000, 20.000000) scale(1, -1) rotate(90.000000) translate(-27.000000, -20.000000) "></path>
                                </g>
                                <g id="Group-Copy" transform="translate(80.500000, 37.500000) scale(-1, 1) translate(-80.500000, -37.500000) translate(66.000000, 19.000000)">
                                    <rect id="Rectangle-Copy-19" fill="#030303" x="7" y="3" width="6" height="3" rx="1.5"></rect>
                                    <circle id="Oval-Copy-2" stroke="#000000" stroke-width="2" cx="4.5" cy="4.5" r="3.5"></circle>
                                    <rect id="Rectangle-Copy-17" fill="#030303" x="23" y="3" width="5.5" height="3" rx="1.5"></rect>
                                    <rect id="Rectangle-Copy-18" fill="#030303" x="15" y="3" width="5.5" height="3" rx="1.5"></rect>
                                    <rect id="Rectangle-Copy-16" fill="#030303" transform="translate(27.000000, 20.000000) scale(1, -1) rotate(90.000000) translate(-27.000000, -20.000000) " x="10.5" y="18.5" width="33" height="3" rx="1.5"></rect>
                                </g>
                                <g id="Group-5" transform="translate(49.000000, 4.000000)">
                                    <rect id="Rectangle-Copy-8" fill="#030303" transform="translate(4.500000, 53.500000) scale(1, -1) rotate(90.000000) translate(-4.500000, -53.500000) " x="-32" y="52" width="73" height="3" rx="1.5"></rect>
                                    <circle id="Oval" stroke="#000000" stroke-width="2" cx="4.5" cy="4.5" r="3.5"></circle>
                                    <rect id="Rectangle-Copy-18" fill="#030303" transform="translate(4.500000, 13.250000) rotate(90.000000) translate(-4.500000, -13.250000) " x="2.5" y="11.75" width="4" height="3" rx="1.5"></rect>
                                </g>
                            </g>
                        </g>
                    </g>
                </g>
            </g>
        </g>
    </g>
</svg>